<?xml version="1.0" encoding="UTF-8" standalone="no"?>
<!DOCTYPE svg PUBLIC "-//W3C//DTD SVG 1.1//EN"
 "http://www.w3.org/Graphics/SVG/1.1/DTD/svg11.dtd">
<!-- Generated by graphviz version 2.43.0 (0)
 -->
<!-- Title: graph Pages: 1 -->
<svg width="2297pt" height="332pt"
 viewBox="0.00 0.00 2297.17 332.00" xmlns="http://www.w3.org/2000/svg" xmlns:xlink="http://www.w3.org/1999/xlink">
<g id="graph0" class="graph" transform="scale(1 1) rotate(0) translate(4 328)">
<title>graph</title>
<polygon fill="white" stroke="transparent" points="-4,4 -4,-328 2293.17,-328 2293.17,4 -4,4"/>
<!-- mranderson.move/replace&#45;in&#45;import -->
<g id="node1" class="node">
<title>mranderson.move/replace&#45;in&#45;import</title>
<g id="a_node1"><a xlink:href="./mranderson.move__replace-in-import.svg" xlink:title="mranderson.move/replace&#45;in&#45;import">
<ellipse fill="none" stroke="black" cx="664.53" cy="-306" rx="138.09" ry="18"/>
<text text-anchor="middle" x="664.53" y="-301.8" font-family="Times,serif" font-size="14.00">mranderson.move/replace&#45;in&#45;import</text>
</a>
</g>
</g>
<!-- rewrite&#45;clj.zip/root -->
<g id="node2" class="node">
<title>rewrite&#45;clj.zip/root</title>
<ellipse fill="none" stroke="black" cx="317.53" cy="-162" rx="76.8" ry="18"/>
<text text-anchor="middle" x="317.53" y="-157.8" font-family="Times,serif" font-size="14.00">rewrite&#45;clj.zip/root</text>
</g>
<!-- mranderson.move/replace&#45;in&#45;import&#45;&gt;rewrite&#45;clj.zip/root -->
<g id="edge1" class="edge">
<title>mranderson.move/replace&#45;in&#45;import&#45;&gt;rewrite&#45;clj.zip/root</title>
<path fill="none" stroke="black" d="M561.43,-293.97C518.77,-286.37 469.94,-273.56 429.53,-252 409.01,-241.05 409.48,-230.81 391.53,-216 378.43,-205.19 363.29,-194.12 350.13,-184.91"/>
<polygon fill="black" stroke="black" points="352.03,-181.96 341.81,-179.14 348.04,-187.71 352.03,-181.96"/>
</g>
<!-- clojure.core/&#45;&gt; -->
<g id="node3" class="node">
<title>clojure.core/&#45;&gt;</title>
<ellipse fill="none" stroke="black" cx="320.53" cy="-234" rx="62.45" ry="18"/>
<text text-anchor="middle" x="320.53" y="-229.8" font-family="Times,serif" font-size="14.00">clojure.core/&#45;&gt;</text>
</g>
<!-- mranderson.move/replace&#45;in&#45;import&#45;&gt;clojure.core/&#45;&gt; -->
<g id="edge2" class="edge">
<title>mranderson.move/replace&#45;in&#45;import&#45;&gt;clojure.core/&#45;&gt;</title>
<path fill="none" stroke="black" d="M590.2,-290.81C536.36,-280.41 461.85,-265.76 396.53,-252 390.45,-250.72 384.11,-249.35 377.79,-247.97"/>
<polygon fill="black" stroke="black" points="378.44,-244.53 367.93,-245.79 376.94,-251.36 378.44,-244.53"/>
</g>
<!-- mranderson.move/import? -->
<g id="node4" class="node">
<title>mranderson.move/import?</title>
<g id="a_node4"><a xlink:href="./mranderson.move__import%3F.svg" xlink:title="mranderson.move/import?">
<ellipse fill="none" stroke="black" cx="119.53" cy="-162" rx="103.85" ry="18"/>
<text text-anchor="middle" x="119.53" y="-157.8" font-family="Times,serif" font-size="14.00">mranderson.move/import?</text>
</a>
</g>
</g>
<!-- mranderson.move/replace&#45;in&#45;import&#45;&gt;mranderson.move/import? -->
<g id="edge3" class="edge">
<title>mranderson.move/replace&#45;in&#45;import&#45;&gt;mranderson.move/import?</title>
<path fill="none" stroke="black" d="M548.27,-296.28C445,-287.43 302.48,-272.15 249.53,-252 210.03,-236.97 170.85,-207.65 145.99,-186.78"/>
<polygon fill="black" stroke="black" points="148.01,-183.89 138.13,-180.05 143.46,-189.21 148.01,-183.89"/>
</g>
<!-- rewrite&#45;clj.zip/node -->
<g id="node5" class="node">
<title>rewrite&#45;clj.zip/node</title>
<ellipse fill="none" stroke="black" cx="518.53" cy="-234" rx="79.69" ry="18"/>
<text text-anchor="middle" x="518.53" y="-229.8" font-family="Times,serif" font-size="14.00">rewrite&#45;clj.zip/node</text>
</g>
<!-- mranderson.move/replace&#45;in&#45;import&#45;&gt;rewrite&#45;clj.zip/node -->
<g id="edge4" class="edge">
<title>mranderson.move/replace&#45;in&#45;import&#45;&gt;rewrite&#45;clj.zip/node</title>
<path fill="none" stroke="black" d="M629.93,-288.41C608.98,-278.36 582.12,-265.49 560.03,-254.9"/>
<polygon fill="black" stroke="black" points="561.41,-251.68 550.88,-250.51 558.39,-257.99 561.41,-251.68"/>
</g>
<!-- clojure.core/some&#45;&gt; -->
<g id="node6" class="node">
<title>clojure.core/some&#45;&gt;</title>
<ellipse fill="none" stroke="black" cx="493.53" cy="-162" rx="81.29" ry="18"/>
<text text-anchor="middle" x="493.53" y="-157.8" font-family="Times,serif" font-size="14.00">clojure.core/some&#45;&gt;</text>
</g>
<!-- mranderson.move/replace&#45;in&#45;import&#45;&gt;clojure.core/some&#45;&gt; -->
<g id="edge5" class="edge">
<title>mranderson.move/replace&#45;in&#45;import&#45;&gt;clojure.core/some&#45;&gt;</title>
<path fill="none" stroke="black" d="M657.18,-287.87C648.04,-268.27 630.74,-236.28 607.53,-216 590.29,-200.94 568.04,-189.32 547.78,-180.85"/>
<polygon fill="black" stroke="black" points="548.92,-177.54 538.33,-177.07 546.31,-184.04 548.92,-177.54"/>
</g>
<!-- clojure.core/if&#45;let -->
<g id="node7" class="node">
<title>clojure.core/if&#45;let</title>
<ellipse fill="none" stroke="black" cx="664.53" cy="-162" rx="71.96" ry="18"/>
<text text-anchor="middle" x="664.53" y="-157.8" font-family="Times,serif" font-size="14.00">clojure.core/if&#45;let</text>
</g>
<!-- mranderson.move/replace&#45;in&#45;import&#45;&gt;clojure.core/if&#45;let -->
<g id="edge6" class="edge">
<title>mranderson.move/replace&#45;in&#45;import&#45;&gt;clojure.core/if&#45;let</title>
<path fill="none" stroke="black" d="M664.53,-287.87C664.53,-263.67 664.53,-219.21 664.53,-190.39"/>
<polygon fill="black" stroke="black" points="668.03,-190.19 664.53,-180.19 661.03,-190.19 668.03,-190.19"/>
</g>
<!-- mranderson.move/replace&#45;in&#45;import* -->
<g id="node8" class="node">
<title>mranderson.move/replace&#45;in&#45;import*</title>
<g id="a_node8"><a xlink:href="./mranderson.move__replace-in-import*.svg" xlink:title="mranderson.move/replace&#45;in&#45;import*">
<ellipse fill="none" stroke="black" cx="834.53" cy="-234" rx="142.43" ry="18"/>
<text text-anchor="middle" x="834.53" y="-229.8" font-family="Times,serif" font-size="14.00">mranderson.move/replace&#45;in&#45;import*</text>
</a>
</g>
</g>
<!-- mranderson.move/replace&#45;in&#45;import&#45;&gt;mranderson.move/replace&#45;in&#45;import* -->
<g id="edge7" class="edge">
<title>mranderson.move/replace&#45;in&#45;import&#45;&gt;mranderson.move/replace&#45;in&#45;import*</title>
<path fill="none" stroke="black" d="M704.39,-288.59C728.58,-278.63 759.65,-265.84 785.36,-255.25"/>
<polygon fill="black" stroke="black" points="787.01,-258.35 794.92,-251.31 784.34,-251.88 787.01,-258.35"/>
</g>
<!-- rewrite&#45;clj.zip/replace -->
<g id="node9" class="node">
<title>rewrite&#45;clj.zip/replace</title>
<ellipse fill="none" stroke="black" cx="1082.53" cy="-234" rx="87.86" ry="18"/>
<text text-anchor="middle" x="1082.53" y="-229.8" font-family="Times,serif" font-size="14.00">rewrite&#45;clj.zip/replace</text>
</g>
<!-- mranderson.move/replace&#45;in&#45;import&#45;&gt;rewrite&#45;clj.zip/replace -->
<g id="edge8" class="edge">
<title>mranderson.move/replace&#45;in&#45;import&#45;&gt;rewrite&#45;clj.zip/replace</title>
<path fill="none" stroke="black" d="M747.37,-291.55C812.21,-280.97 904.65,-265.76 985.53,-252 992.91,-250.74 1000.61,-249.42 1008.3,-248.09"/>
<polygon fill="black" stroke="black" points="1009.12,-251.5 1018.37,-246.34 1007.92,-244.6 1009.12,-251.5"/>
</g>
<!-- rewrite&#45;clj.zip/edn -->
<g id="node10" class="node">
<title>rewrite&#45;clj.zip/edn</title>
<ellipse fill="none" stroke="black" cx="1263.53" cy="-234" rx="75.34" ry="18"/>
<text text-anchor="middle" x="1263.53" y="-229.8" font-family="Times,serif" font-size="14.00">rewrite&#45;clj.zip/edn</text>
</g>
<!-- mranderson.move/replace&#45;in&#45;import&#45;&gt;rewrite&#45;clj.zip/edn -->
<g id="edge9" class="edge">
<title>mranderson.move/replace&#45;in&#45;import&#45;&gt;rewrite&#45;clj.zip/edn</title>
<path fill="none" stroke="black" d="M780.76,-296.28C885.41,-287.66 1043.25,-272.75 1179.53,-252 1186.15,-250.99 1193.04,-249.81 1199.9,-248.55"/>
<polygon fill="black" stroke="black" points="1200.72,-251.96 1209.9,-246.66 1199.42,-245.08 1200.72,-251.96"/>
</g>
<!-- rewrite&#45;clj.zip/up -->
<g id="node11" class="node">
<title>rewrite&#45;clj.zip/up</title>
<ellipse fill="none" stroke="black" cx="1427.53" cy="-234" rx="71.49" ry="18"/>
<text text-anchor="middle" x="1427.53" y="-229.8" font-family="Times,serif" font-size="14.00">rewrite&#45;clj.zip/up</text>
</g>
<!-- mranderson.move/replace&#45;in&#45;import&#45;&gt;rewrite&#45;clj.zip/up -->
<g id="edge10" class="edge">
<title>mranderson.move/replace&#45;in&#45;import&#45;&gt;rewrite&#45;clj.zip/up</title>
<path fill="none" stroke="black" d="M794.76,-300.01C932.61,-293.53 1156.25,-279.62 1347.53,-252 1353.8,-251.09 1360.32,-249.99 1366.8,-248.78"/>
<polygon fill="black" stroke="black" points="1367.78,-252.15 1376.93,-246.81 1366.44,-245.28 1367.78,-252.15"/>
</g>
<!-- rewrite&#45;clj.zip/find&#45;next&#45;depth&#45;first -->
<g id="node12" class="node">
<title>rewrite&#45;clj.zip/find&#45;next&#45;depth&#45;first</title>
<ellipse fill="none" stroke="black" cx="2155.53" cy="-162" rx="133.77" ry="18"/>
<text text-anchor="middle" x="2155.53" y="-157.8" font-family="Times,serif" font-size="14.00">rewrite&#45;clj.zip/find&#45;next&#45;depth&#45;first</text>
</g>
<!-- mranderson.move/replace&#45;in&#45;import&#45;&gt;rewrite&#45;clj.zip/find&#45;next&#45;depth&#45;first -->
<g id="edge11" class="edge">
<title>mranderson.move/replace&#45;in&#45;import&#45;&gt;rewrite&#45;clj.zip/find&#45;next&#45;depth&#45;first</title>
<path fill="none" stroke="black" d="M794.39,-299.81C960.15,-292.5 1255.64,-277.18 1507.53,-252 1706.38,-232.12 1938.06,-197.51 2063.47,-177.82"/>
<polygon fill="black" stroke="black" points="2064.08,-181.27 2073.42,-176.26 2063,-174.35 2064.08,-181.27"/>
</g>
<!-- rewrite&#45;clj.zip.base/tag -->
<g id="node13" class="node">
<title>rewrite&#45;clj.zip.base/tag</title>
<ellipse fill="none" stroke="black" cx="638.53" cy="-90" rx="91.26" ry="18"/>
<text text-anchor="middle" x="638.53" y="-85.8" font-family="Times,serif" font-size="14.00">rewrite&#45;clj.zip.base/tag</text>
</g>
<!-- mranderson.move/import?&#45;&gt;rewrite&#45;clj.zip.base/tag -->
<g id="edge12" class="edge">
<title>mranderson.move/import?&#45;&gt;rewrite&#45;clj.zip.base/tag</title>
<path fill="none" stroke="black" d="M193.58,-149.4C206.23,-147.52 219.25,-145.65 231.53,-144 367.69,-125.69 402.55,-127.52 538.53,-108 546.53,-106.85 554.86,-105.57 563.17,-104.24"/>
<polygon fill="black" stroke="black" points="563.94,-107.66 573.25,-102.6 562.82,-100.75 563.94,-107.66"/>
</g>
<!-- clojure.core/when&#45;let -->
<g id="node14" class="node">
<title>clojure.core/when&#45;let</title>
<ellipse fill="none" stroke="black" cx="833.53" cy="-90" rx="85.47" ry="18"/>
<text text-anchor="middle" x="833.53" y="-85.8" font-family="Times,serif" font-size="14.00">clojure.core/when&#45;let</text>
</g>
<!-- mranderson.move/import?&#45;&gt;clojure.core/when&#45;let -->
<g id="edge13" class="edge">
<title>mranderson.move/import?&#45;&gt;clojure.core/when&#45;let</title>
<path fill="none" stroke="black" d="M192.32,-149.09C205.35,-147.2 218.83,-145.41 231.53,-144 456.05,-119.03 514.37,-135.94 738.53,-108 746.51,-107.01 754.84,-105.79 763.1,-104.46"/>
<polygon fill="black" stroke="black" points="763.82,-107.89 773.12,-102.8 762.68,-100.98 763.82,-107.89"/>
</g>
<!-- rewrite&#45;clj.zip.base/sexpr -->
<g id="node15" class="node">
<title>rewrite&#45;clj.zip.base/sexpr</title>
<ellipse fill="none" stroke="black" cx="236.53" cy="-90" rx="99.47" ry="18"/>
<text text-anchor="middle" x="236.53" y="-85.8" font-family="Times,serif" font-size="14.00">rewrite&#45;clj.zip.base/sexpr</text>
</g>
<!-- mranderson.move/import?&#45;&gt;rewrite&#45;clj.zip.base/sexpr -->
<g id="edge14" class="edge">
<title>mranderson.move/import?&#45;&gt;rewrite&#45;clj.zip.base/sexpr</title>
<path fill="none" stroke="black" d="M146.96,-144.59C162.84,-135.09 183.01,-123.02 200.19,-112.74"/>
<polygon fill="black" stroke="black" points="202.08,-115.69 208.87,-107.55 198.49,-109.68 202.08,-115.69"/>
</g>
<!-- clojure.core/when&#45;not -->
<g id="node16" class="node">
<title>clojure.core/when&#45;not</title>
<ellipse fill="none" stroke="black" cx="441.53" cy="-90" rx="87.89" ry="18"/>
<text text-anchor="middle" x="441.53" y="-85.8" font-family="Times,serif" font-size="14.00">clojure.core/when&#45;not</text>
</g>
<!-- mranderson.move/import?&#45;&gt;clojure.core/when&#45;not -->
<g id="edge15" class="edge">
<title>mranderson.move/import?&#45;&gt;clojure.core/when&#45;not</title>
<path fill="none" stroke="black" d="M181.62,-147.5C236.7,-135.53 317,-118.07 373.74,-105.74"/>
<polygon fill="black" stroke="black" points="374.67,-109.12 383.7,-103.57 373.18,-102.28 374.67,-109.12"/>
</g>
<!-- clojure.core/= -->
<g id="node17" class="node">
<title>clojure.core/=</title>
<ellipse fill="none" stroke="black" cx="59.53" cy="-90" rx="59.56" ry="18"/>
<text text-anchor="middle" x="59.53" y="-85.8" font-family="Times,serif" font-size="14.00">clojure.core/=</text>
</g>
<!-- mranderson.move/import?&#45;&gt;clojure.core/= -->
<g id="edge16" class="edge">
<title>mranderson.move/import?&#45;&gt;clojure.core/=</title>
<path fill="none" stroke="black" d="M105.01,-144.05C97.64,-135.46 88.55,-124.86 80.44,-115.4"/>
<polygon fill="black" stroke="black" points="83.09,-113.1 73.92,-107.79 77.77,-117.66 83.09,-113.1"/>
</g>
<!-- mranderson.move/replace&#45;in&#45;import*&#45;&gt;rewrite&#45;clj.zip/root -->
<g id="edge17" class="edge">
<title>mranderson.move/replace&#45;in&#45;import*&#45;&gt;rewrite&#45;clj.zip/root</title>
<path fill="none" stroke="black" d="M727.51,-222.03C640.12,-212.55 513.52,-197.61 403.53,-180 396.87,-178.93 389.93,-177.73 383.02,-176.46"/>
<polygon fill="black" stroke="black" points="383.41,-172.97 372.94,-174.57 382.12,-179.85 383.41,-172.97"/>
</g>
<!-- mranderson.move/replace&#45;in&#45;import*&#45;&gt;clojure.core/some&#45;&gt; -->
<g id="edge18" class="edge">
<title>mranderson.move/replace&#45;in&#45;import*&#45;&gt;clojure.core/some&#45;&gt;</title>
<path fill="none" stroke="black" d="M763.05,-218.33C703.42,-206.08 619.06,-188.77 560.67,-176.78"/>
<polygon fill="black" stroke="black" points="561.31,-173.34 550.81,-174.76 559.9,-180.2 561.31,-173.34"/>
</g>
<!-- mranderson.move/replace&#45;in&#45;import*&#45;&gt;clojure.core/if&#45;let -->
<g id="edge22" class="edge">
<title>mranderson.move/replace&#45;in&#45;import*&#45;&gt;clojure.core/if&#45;let</title>
<path fill="none" stroke="black" d="M794.67,-216.59C769.15,-206.08 735.98,-192.42 709.52,-181.52"/>
<polygon fill="black" stroke="black" points="710.67,-178.21 700.09,-177.64 708.01,-184.69 710.67,-178.21"/>
</g>
<!-- mranderson.move/replace&#45;in&#45;import*&#45;&gt;rewrite&#45;clj.zip/find&#45;next&#45;depth&#45;first -->
<g id="edge25" class="edge">
<title>mranderson.move/replace&#45;in&#45;import*&#45;&gt;rewrite&#45;clj.zip/find&#45;next&#45;depth&#45;first</title>
<path fill="none" stroke="black" d="M932.31,-220.88C950,-219 968.3,-217.27 985.53,-216 1441.46,-182.4 1557.72,-215.2 2013.53,-180 2026.45,-179 2040.01,-177.7 2053.4,-176.27"/>
<polygon fill="black" stroke="black" points="2054.04,-179.72 2063.6,-175.15 2053.28,-172.76 2054.04,-179.72"/>
</g>
<!-- mranderson.move/java&#45;style&#45;prefix? -->
<g id="node18" class="node">
<title>mranderson.move/java&#45;style&#45;prefix?</title>
<g id="a_node18"><a xlink:href="./mranderson.move__java-style-prefix%3F.svg" xlink:title="mranderson.move/java&#45;style&#45;prefix?">
<ellipse fill="none" stroke="black" cx="1228.53" cy="-162" rx="138.1" ry="18"/>
<text text-anchor="middle" x="1228.53" y="-157.8" font-family="Times,serif" font-size="14.00">mranderson.move/java&#45;style&#45;prefix?</text>
</a>
</g>
</g>
<!-- mranderson.move/replace&#45;in&#45;import*&#45;&gt;mranderson.move/java&#45;style&#45;prefix? -->
<g id="edge19" class="edge">
<title>mranderson.move/replace&#45;in&#45;import*&#45;&gt;mranderson.move/java&#45;style&#45;prefix?</title>
<path fill="none" stroke="black" d="M913.32,-219C979.03,-207.33 1072.58,-190.71 1140.7,-178.61"/>
<polygon fill="black" stroke="black" points="1141.32,-182.05 1150.56,-176.85 1140.1,-175.16 1141.32,-182.05"/>
</g>
<!-- clojure.core/loop -->
<g id="node19" class="node">
<title>clojure.core/loop</title>
<ellipse fill="none" stroke="black" cx="1764.53" cy="-162" rx="70.03" ry="18"/>
<text text-anchor="middle" x="1764.53" y="-157.8" font-family="Times,serif" font-size="14.00">clojure.core/loop</text>
</g>
<!-- mranderson.move/replace&#45;in&#45;import*&#45;&gt;clojure.core/loop -->
<g id="edge20" class="edge">
<title>mranderson.move/replace&#45;in&#45;import*&#45;&gt;clojure.core/loop</title>
<path fill="none" stroke="black" d="M933.54,-220.98C950.85,-219.13 968.7,-217.38 985.53,-216 1295.57,-190.59 1376.1,-220.46 1684.53,-180 1691.15,-179.13 1698.04,-178.01 1704.88,-176.75"/>
<polygon fill="black" stroke="black" points="1705.66,-180.17 1714.81,-174.83 1704.33,-173.29 1705.66,-180.17"/>
</g>
<!-- rewrite&#45;clj.zip/edit -->
<g id="node20" class="node">
<title>rewrite&#45;clj.zip/edit</title>
<ellipse fill="none" stroke="black" cx="1928.53" cy="-162" rx="75.83" ry="18"/>
<text text-anchor="middle" x="1928.53" y="-157.8" font-family="Times,serif" font-size="14.00">rewrite&#45;clj.zip/edit</text>
</g>
<!-- mranderson.move/replace&#45;in&#45;import*&#45;&gt;rewrite&#45;clj.zip/edit -->
<g id="edge21" class="edge">
<title>mranderson.move/replace&#45;in&#45;import*&#45;&gt;rewrite&#45;clj.zip/edit</title>
<path fill="none" stroke="black" d="M932.72,-220.93C950.29,-219.06 968.44,-217.32 985.53,-216 1366.07,-186.63 1464.59,-225.56 1843.53,-180 1850.72,-179.14 1858.21,-178 1865.64,-176.71"/>
<polygon fill="black" stroke="black" points="1866.47,-180.12 1875.69,-174.89 1865.22,-173.23 1866.47,-180.12"/>
</g>
<!-- clojure.core/partial -->
<g id="node21" class="node">
<title>clojure.core/partial</title>
<ellipse fill="none" stroke="black" cx="831.53" cy="-162" rx="77.26" ry="18"/>
<text text-anchor="middle" x="831.53" y="-157.8" font-family="Times,serif" font-size="14.00">clojure.core/partial</text>
</g>
<!-- mranderson.move/replace&#45;in&#45;import*&#45;&gt;clojure.core/partial -->
<g id="edge23" class="edge">
<title>mranderson.move/replace&#45;in&#45;import*&#45;&gt;clojure.core/partial</title>
<path fill="none" stroke="black" d="M833.79,-215.7C833.46,-207.98 833.06,-198.71 832.69,-190.11"/>
<polygon fill="black" stroke="black" points="836.19,-189.95 832.26,-180.1 829.2,-190.25 836.19,-189.95"/>
</g>
<!-- clojure.core/recur -->
<g id="node22" class="node">
<title>clojure.core/recur</title>
<ellipse fill="none" stroke="black" cx="999.53" cy="-162" rx="72.91" ry="18"/>
<text text-anchor="middle" x="999.53" y="-157.8" font-family="Times,serif" font-size="14.00">clojure.core/recur</text>
</g>
<!-- mranderson.move/replace&#45;in&#45;import*&#45;&gt;clojure.core/recur -->
<g id="edge24" class="edge">
<title>mranderson.move/replace&#45;in&#45;import*&#45;&gt;clojure.core/recur</title>
<path fill="none" stroke="black" d="M873.22,-216.59C897.71,-206.2 929.46,-192.73 955.01,-181.89"/>
<polygon fill="black" stroke="black" points="956.62,-185.01 964.46,-177.88 953.89,-178.56 956.62,-185.01"/>
</g>
<!-- mranderson.move/&#45;&gt;new&#45;import&#45;node -->
<g id="node23" class="node">
<title>mranderson.move/&#45;&gt;new&#45;import&#45;node</title>
<g id="a_node23"><a xlink:href="./mranderson.move__-%3Enew-import-node.svg" xlink:title="mranderson.move/&#45;&gt;new&#45;import&#45;node">
<ellipse fill="none" stroke="black" cx="1530.53" cy="-162" rx="145.49" ry="18"/>
<text text-anchor="middle" x="1530.53" y="-157.8" font-family="Times,serif" font-size="14.00">mranderson.move/&#45;&gt;new&#45;import&#45;node</text>
</a>
</g>
</g>
<!-- mranderson.move/replace&#45;in&#45;import*&#45;&gt;mranderson.move/&#45;&gt;new&#45;import&#45;node -->
<g id="edge26" class="edge">
<title>mranderson.move/replace&#45;in&#45;import*&#45;&gt;mranderson.move/&#45;&gt;new&#45;import&#45;node</title>
<path fill="none" stroke="black" d="M936.03,-221.29C952.57,-219.46 969.52,-217.64 985.53,-216 1158.7,-198.26 1202.34,-197.49 1375.53,-180 1388.86,-178.65 1402.83,-177.19 1416.69,-175.71"/>
<polygon fill="black" stroke="black" points="1417.19,-179.18 1426.76,-174.63 1416.44,-172.22 1417.19,-179.18"/>
</g>
<!-- mranderson.move/java&#45;style&#45;prefix?&#45;&gt;rewrite&#45;clj.zip.base/tag -->
<g id="edge28" class="edge">
<title>mranderson.move/java&#45;style&#45;prefix?&#45;&gt;rewrite&#45;clj.zip.base/tag</title>
<path fill="none" stroke="black" d="M1129.71,-149.43C1113.61,-147.59 1097.11,-145.72 1081.53,-144 929.62,-127.22 890.96,-128.69 739.53,-108 731.24,-106.87 722.58,-105.58 713.97,-104.22"/>
<polygon fill="black" stroke="black" points="714.34,-100.74 703.91,-102.61 713.23,-107.65 714.34,-100.74"/>
</g>
<!-- mranderson.move/java&#45;style&#45;prefix?&#45;&gt;clojure.core/when&#45;let -->
<g id="edge30" class="edge">
<title>mranderson.move/java&#45;style&#45;prefix?&#45;&gt;clojure.core/when&#45;let</title>
<path fill="none" stroke="black" d="M1149.61,-147.21C1088.88,-136.57 1002.88,-121.45 927.53,-108 920.52,-106.75 913.21,-105.44 905.9,-104.12"/>
<polygon fill="black" stroke="black" points="906.43,-100.66 895.97,-102.33 905.19,-107.55 906.43,-100.66"/>
</g>
<!-- mranderson.move/java&#45;style&#45;prefix?&#45;&gt;rewrite&#45;clj.zip.base/sexpr -->
<g id="edge31" class="edge">
<title>mranderson.move/java&#45;style&#45;prefix?&#45;&gt;rewrite&#45;clj.zip.base/sexpr</title>
<path fill="none" stroke="black" d="M1132.55,-148.97C1115.57,-147.11 1098.05,-145.36 1081.53,-144 754.69,-117.15 670.76,-141.54 344.53,-108 335.14,-107.03 325.33,-105.8 315.6,-104.44"/>
<polygon fill="black" stroke="black" points="315.92,-100.95 305.53,-102.99 314.92,-107.88 315.92,-100.95"/>
</g>
<!-- mranderson.move/java&#45;style&#45;prefix?&#45;&gt;clojure.core/when&#45;not -->
<g id="edge32" class="edge">
<title>mranderson.move/java&#45;style&#45;prefix?&#45;&gt;clojure.core/when&#45;not</title>
<path fill="none" stroke="black" d="M1131.74,-149.12C1115.01,-147.27 1097.78,-145.48 1081.53,-144 840.66,-122.1 778.66,-136.92 538.53,-108 530.3,-107.01 521.7,-105.78 513.17,-104.45"/>
<polygon fill="black" stroke="black" points="513.65,-100.98 503.22,-102.83 512.53,-107.89 513.65,-100.98"/>
</g>
<!-- mranderson.move/java&#45;package -->
<g id="node24" class="node">
<title>mranderson.move/java&#45;package</title>
<g id="a_node24"><a xlink:href="./mranderson.move__java-package.svg" xlink:title="mranderson.move/java&#45;package">
<ellipse fill="none" stroke="black" cx="1279.53" cy="-90" rx="122.62" ry="18"/>
<text text-anchor="middle" x="1279.53" y="-85.8" font-family="Times,serif" font-size="14.00">mranderson.move/java&#45;package</text>
</a>
</g>
</g>
<!-- mranderson.move/java&#45;style&#45;prefix?&#45;&gt;mranderson.move/java&#45;package -->
<g id="edge27" class="edge">
<title>mranderson.move/java&#45;style&#45;prefix?&#45;&gt;mranderson.move/java&#45;package</title>
<path fill="none" stroke="black" d="M1240.88,-144.05C1246.93,-135.75 1254.34,-125.58 1261.04,-116.38"/>
<polygon fill="black" stroke="black" points="1263.89,-118.42 1266.95,-108.28 1258.23,-114.3 1263.89,-118.42"/>
</g>
<!-- clojure.string/starts&#45;with? -->
<g id="node25" class="node">
<title>clojure.string/starts&#45;with?</title>
<ellipse fill="none" stroke="black" cx="1037.53" cy="-90" rx="100.96" ry="18"/>
<text text-anchor="middle" x="1037.53" y="-85.8" font-family="Times,serif" font-size="14.00">clojure.string/starts&#45;with?</text>
</g>
<!-- mranderson.move/java&#45;style&#45;prefix?&#45;&gt;clojure.string/starts&#45;with? -->
<g id="edge29" class="edge">
<title>mranderson.move/java&#45;style&#45;prefix?&#45;&gt;clojure.string/starts&#45;with?</title>
<path fill="none" stroke="black" d="M1184.23,-144.76C1155.92,-134.39 1119.07,-120.88 1089.39,-110.01"/>
<polygon fill="black" stroke="black" points="1090.22,-106.58 1079.62,-106.43 1087.81,-113.15 1090.22,-106.58"/>
</g>
<!-- mranderson.move/&#45;&gt;new&#45;import&#45;node&#45;&gt;mranderson.move/java&#45;package -->
<g id="edge33" class="edge">
<title>mranderson.move/&#45;&gt;new&#45;import&#45;node&#45;&gt;mranderson.move/java&#45;package</title>
<path fill="none" stroke="black" d="M1474.51,-145.38C1435.81,-134.58 1384.22,-120.2 1343.83,-108.93"/>
<polygon fill="black" stroke="black" points="1344.66,-105.53 1334.08,-106.21 1342.78,-112.27 1344.66,-105.53"/>
</g>
<!-- clojure.core/cond -->
<g id="node26" class="node">
<title>clojure.core/cond</title>
<ellipse fill="none" stroke="black" cx="1530.53" cy="-90" rx="71.97" ry="18"/>
<text text-anchor="middle" x="1530.53" y="-85.8" font-family="Times,serif" font-size="14.00">clojure.core/cond</text>
</g>
<!-- mranderson.move/&#45;&gt;new&#45;import&#45;node&#45;&gt;clojure.core/cond -->
<g id="edge34" class="edge">
<title>mranderson.move/&#45;&gt;new&#45;import&#45;node&#45;&gt;clojure.core/cond</title>
<path fill="none" stroke="black" d="M1530.53,-143.7C1530.53,-135.98 1530.53,-126.71 1530.53,-118.11"/>
<polygon fill="black" stroke="black" points="1534.03,-118.1 1530.53,-108.1 1527.03,-118.1 1534.03,-118.1"/>
</g>
<!-- clojure.core/symbol? -->
<g id="node27" class="node">
<title>clojure.core/symbol?</title>
<ellipse fill="none" stroke="black" cx="1704.53" cy="-90" rx="84.52" ry="18"/>
<text text-anchor="middle" x="1704.53" y="-85.8" font-family="Times,serif" font-size="14.00">clojure.core/symbol?</text>
</g>
<!-- mranderson.move/&#45;&gt;new&#45;import&#45;node&#45;&gt;clojure.core/symbol? -->
<g id="edge35" class="edge">
<title>mranderson.move/&#45;&gt;new&#45;import&#45;node&#45;&gt;clojure.core/symbol?</title>
<path fill="none" stroke="black" d="M1571.33,-144.59C1597,-134.26 1630.24,-120.89 1657.09,-110.08"/>
<polygon fill="black" stroke="black" points="1658.7,-113.21 1666.67,-106.23 1656.09,-106.72 1658.7,-113.21"/>
</g>
<!-- clojure.core/let -->
<g id="node28" class="node">
<title>clojure.core/let</title>
<ellipse fill="none" stroke="black" cx="1870.53" cy="-90" rx="63.27" ry="18"/>
<text text-anchor="middle" x="1870.53" y="-85.8" font-family="Times,serif" font-size="14.00">clojure.core/let</text>
</g>
<!-- mranderson.move/&#45;&gt;new&#45;import&#45;node&#45;&gt;clojure.core/let -->
<g id="edge36" class="edge">
<title>mranderson.move/&#45;&gt;new&#45;import&#45;node&#45;&gt;clojure.core/let</title>
<path fill="none" stroke="black" d="M1606.93,-146.66C1660.63,-136.4 1734.1,-121.97 1798.53,-108 1803.5,-106.92 1808.66,-105.77 1813.83,-104.59"/>
<polygon fill="black" stroke="black" points="1814.77,-107.97 1823.72,-102.31 1813.19,-101.15 1814.77,-107.97"/>
</g>
<!-- clojure.core/symbol -->
<g id="node29" class="node">
<title>clojure.core/symbol</title>
<ellipse fill="none" stroke="black" cx="2032.53" cy="-90" rx="80.67" ry="18"/>
<text text-anchor="middle" x="2032.53" y="-85.8" font-family="Times,serif" font-size="14.00">clojure.core/symbol</text>
</g>
<!-- mranderson.move/&#45;&gt;new&#45;import&#45;node&#45;&gt;clojure.core/symbol -->
<g id="edge37" class="edge">
<title>mranderson.move/&#45;&gt;new&#45;import&#45;node&#45;&gt;clojure.core/symbol</title>
<path fill="none" stroke="black" d="M1634.48,-149.34C1717.93,-139.57 1838.01,-124.58 1942.53,-108 1949.55,-106.89 1956.86,-105.64 1964.15,-104.35"/>
<polygon fill="black" stroke="black" points="1964.82,-107.79 1974.04,-102.56 1963.58,-100.9 1964.82,-107.79"/>
</g>
<!-- clojure.string/replace -->
<g id="node30" class="node">
<title>clojure.string/replace</title>
<ellipse fill="none" stroke="black" cx="1430.53" cy="-18" rx="84.99" ry="18"/>
<text text-anchor="middle" x="1430.53" y="-13.8" font-family="Times,serif" font-size="14.00">clojure.string/replace</text>
</g>
<!-- mranderson.move/&#45;&gt;new&#45;import&#45;node&#45;&gt;clojure.string/replace -->
<g id="edge38" class="edge">
<title>mranderson.move/&#45;&gt;new&#45;import&#45;node&#45;&gt;clojure.string/replace</title>
<path fill="none" stroke="black" d="M1493,-144.53C1477.31,-135.83 1460.27,-123.66 1449.53,-108 1437.08,-89.83 1432.55,-65.06 1431.02,-46.26"/>
<polygon fill="black" stroke="black" points="1434.51,-46.02 1430.43,-36.24 1427.52,-46.43 1434.51,-46.02"/>
</g>
<!-- mranderson.move/java&#45;package&#45;&gt;clojure.string/replace -->
<g id="edge40" class="edge">
<title>mranderson.move/java&#45;package&#45;&gt;clojure.string/replace</title>
<path fill="none" stroke="black" d="M1314.93,-72.59C1336.69,-62.5 1364.71,-49.51 1387.71,-38.85"/>
<polygon fill="black" stroke="black" points="1389.31,-41.97 1396.91,-34.59 1386.36,-35.62 1389.31,-41.97"/>
</g>
<!-- clojure.core/name -->
<g id="node31" class="node">
<title>clojure.core/name</title>
<ellipse fill="none" stroke="black" cx="1253.53" cy="-18" rx="73.89" ry="18"/>
<text text-anchor="middle" x="1253.53" y="-13.8" font-family="Times,serif" font-size="14.00">clojure.core/name</text>
</g>
<!-- mranderson.move/java&#45;package&#45;&gt;clojure.core/name -->
<g id="edge39" class="edge">
<title>mranderson.move/java&#45;package&#45;&gt;clojure.core/name</title>
<path fill="none" stroke="black" d="M1273.1,-71.7C1270.18,-63.81 1266.64,-54.3 1263.39,-45.55"/>
<polygon fill="black" stroke="black" points="1266.65,-44.26 1259.88,-36.1 1260.09,-46.7 1266.65,-44.26"/>
</g>
</g>
</svg>
