<?xml version="1.0" encoding="UTF-8" standalone="no"?>
<!DOCTYPE svg PUBLIC "-//W3C//DTD SVG 1.1//EN"
 "http://www.w3.org/Graphics/SVG/1.1/DTD/svg11.dtd">
<!-- Generated by graphviz version 2.47.3 (20210619.1520)
 -->
<!-- Title: graph Pages: 1 -->
<svg width="1093pt" height="866pt"
 viewBox="0.00 0.00 1093.00 866.00" xmlns="http://www.w3.org/2000/svg" xmlns:xlink="http://www.w3.org/1999/xlink">
<g id="graph0" class="graph" transform="scale(1 1) rotate(0) translate(4 862)">
<title>graph</title>
<polygon fill="white" stroke="transparent" points="-4,4 -4,-862 1089,-862 1089,4 -4,4"/>
<!-- mranderson.core/mranderson&#45;unresolved&#45;deps! -->
<g id="node1" class="node">
<title>mranderson.core/mranderson&#45;unresolved&#45;deps!</title>
<g id="a_node1"><a xlink:href="./mranderson.core__mranderson-unresolved-deps%21.svg" xlink:title="mranderson.core/mranderson&#45;unresolved&#45;deps!">
<ellipse fill="none" stroke="black" cx="488.83" cy="-532.05" rx="178.17" ry="18"/>
<text text-anchor="middle" x="488.83" y="-528.35" font-family="Times,serif" font-size="14.00">mranderson.core/mranderson&#45;unresolved&#45;deps!</text>
</a>
</g>
</g>
<!-- mranderson.core/unzip&#45;artifact! -->
<g id="node2" class="node">
<title>mranderson.core/unzip&#45;artifact!</title>
<g id="a_node2"><a xlink:href="./mranderson.core__unzip-artifact%21.svg" xlink:title="mranderson.core/unzip&#45;artifact!">
<ellipse fill="none" stroke="black" cx="853.22" cy="-620.83" rx="122.68" ry="18"/>
<text text-anchor="middle" x="853.22" y="-617.13" font-family="Times,serif" font-size="14.00">mranderson.core/unzip&#45;artifact!</text>
</a>
</g>
</g>
<!-- mranderson.core/mranderson&#45;unresolved&#45;deps!&#45;&gt;mranderson.core/unzip&#45;artifact! -->
<g id="edge1" class="edge">
<title>mranderson.core/mranderson&#45;unresolved&#45;deps!&#45;&gt;mranderson.core/unzip&#45;artifact!</title>
<path fill="none" stroke="blue" d="M557.37,-548.75C620.9,-564.23 715.14,-587.19 780.1,-603.01"/>
<polygon fill="blue" stroke="blue" points="779.32,-606.42 789.86,-605.39 780.98,-599.62 779.32,-606.42"/>
</g>
<!-- mranderson.core/update&#45;artifact! -->
<g id="node3" class="node">
<title>mranderson.core/update&#45;artifact!</title>
<g id="a_node3"><a xlink:href="./mranderson.core__update-artifact%21.svg" xlink:title="mranderson.core/update&#45;artifact!">
<ellipse fill="none" stroke="black" cx="889.2" cy="-354.82" rx="126.98" ry="18"/>
<text text-anchor="middle" x="889.2" y="-351.12" font-family="Times,serif" font-size="14.00">mranderson.core/update&#45;artifact!</text>
</a>
</g>
</g>
<!-- mranderson.core/mranderson&#45;unresolved&#45;deps!&#45;&gt;mranderson.core/update&#45;artifact! -->
<g id="edge2" class="edge">
<title>mranderson.core/mranderson&#45;unresolved&#45;deps!&#45;&gt;mranderson.core/update&#45;artifact!</title>
<path fill="none" stroke="blue" d="M528.68,-514.4C602.71,-481.63 761.17,-411.49 841.05,-376.13"/>
<polygon fill="blue" stroke="blue" points="842.66,-379.24 850.39,-371.99 839.83,-372.84 842.66,-379.24"/>
</g>
<!-- mranderson.util/info -->
<g id="node4" class="node">
<title>mranderson.util/info</title>
<g id="a_node4"><a xlink:href="./mranderson.util__info.svg" xlink:title="mranderson.util/info">
<ellipse fill="none" stroke="black" cx="504.27" cy="-441.75" rx="83.39" ry="18"/>
<text text-anchor="middle" x="504.27" y="-438.05" font-family="Times,serif" font-size="14.00">mranderson.util/info</text>
</a>
</g>
</g>
<!-- mranderson.core/mranderson&#45;unresolved&#45;deps!&#45;&gt;mranderson.util/info -->
<g id="edge3" class="edge">
<title>mranderson.core/mranderson&#45;unresolved&#45;deps!&#45;&gt;mranderson.util/info</title>
<path fill="none" stroke="black" d="M491.96,-513.77C494.09,-501.29 496.96,-484.49 499.4,-470.26"/>
<polygon fill="black" stroke="black" points="502.92,-470.44 501.15,-459.99 496.02,-469.26 502.92,-470.44"/>
</g>
<!-- mranderson.core/print&#45;dep -->
<g id="node5" class="node">
<title>mranderson.core/print&#45;dep</title>
<g id="a_node5"><a xlink:href="./mranderson.core__print-dep.svg" xlink:title="mranderson.core/print&#45;dep">
<ellipse fill="none" stroke="black" cx="595.17" cy="-693.26" rx="104.78" ry="18"/>
<text text-anchor="middle" x="595.17" y="-689.56" font-family="Times,serif" font-size="14.00">mranderson.core/print&#45;dep</text>
</a>
</g>
</g>
<!-- mranderson.core/mranderson&#45;unresolved&#45;deps!&#45;&gt;mranderson.core/print&#45;dep -->
<g id="edge4" class="edge">
<title>mranderson.core/mranderson&#45;unresolved&#45;deps!&#45;&gt;mranderson.core/print&#45;dep</title>
<path fill="none" stroke="blue" d="M500.82,-550.23C519.49,-578.53 555.61,-633.29 577.34,-666.23"/>
<polygon fill="blue" stroke="blue" points="574.63,-668.48 583.06,-674.9 580.47,-664.63 574.63,-668.48"/>
</g>
<!-- mranderson.core/unzip&#45;artifact!&#45;&gt;mranderson.util/info -->
<g id="edge5" class="edge">
<title>mranderson.core/unzip&#45;artifact!&#45;&gt;mranderson.util/info</title>
<path fill="none" stroke="black" d="M819.44,-603.49C755.2,-570.52 615.58,-498.87 545.76,-463.04"/>
<polygon fill="black" stroke="black" points="547.29,-459.89 536.8,-458.44 544.09,-466.12 547.29,-459.89"/>
</g>
<!-- mranderson.core/update&#45;artifact!&#45;&gt;mranderson.util/info -->
<g id="edge13" class="edge">
<title>mranderson.core/update&#45;artifact!&#45;&gt;mranderson.util/info</title>
<path fill="none" stroke="black" d="M821.71,-370.06C751.53,-385.91 642.29,-410.58 572.01,-426.45"/>
<polygon fill="black" stroke="black" points="570.92,-423.11 561.94,-428.73 572.46,-429.94 570.92,-423.11"/>
</g>
<!-- mranderson.core/prefix&#45;dependency&#45;imports! -->
<g id="node9" class="node">
<title>mranderson.core/prefix&#45;dependency&#45;imports!</title>
<g id="a_node9"><a xlink:href="./mranderson.core__prefix-dependency-imports%21.svg" xlink:title="mranderson.core/prefix&#45;dependency&#45;imports!">
<ellipse fill="none" stroke="black" cx="914.56" cy="-308.88" rx="170.87" ry="18"/>
<text text-anchor="middle" x="914.56" y="-305.18" font-family="Times,serif" font-size="14.00">mranderson.core/prefix&#45;dependency&#45;imports!</text>
</a>
</g>
</g>
<!-- mranderson.core/update&#45;artifact!&#45;&gt;mranderson.core/prefix&#45;dependency&#45;imports! -->
<g id="edge12" class="edge">
<title>mranderson.core/update&#45;artifact!&#45;&gt;mranderson.core/prefix&#45;dependency&#45;imports!</title>
<path fill="none" stroke="blue" d="M899.22,-336.66C899.39,-336.36 899.56,-336.06 899.72,-335.76"/>
<polygon fill="blue" stroke="blue" points="902.84,-337.35 904.61,-326.91 896.71,-333.97 902.84,-337.35"/>
</g>
<!-- mranderson.core/print&#45;dep&#45;&gt;mranderson.util/info -->
<g id="edge22" class="edge">
<title>mranderson.core/print&#45;dep&#45;&gt;mranderson.util/info</title>
<path fill="none" stroke="black" d="M588.63,-675.18C572.95,-631.78 533.09,-521.5 514.33,-469.58"/>
<polygon fill="black" stroke="black" points="517.57,-468.23 510.87,-460.01 510.98,-470.6 517.57,-468.23"/>
</g>
<!-- mranderson.core/mranderson&#45;resolved&#45;deps! -->
<g id="node6" class="node">
<title>mranderson.core/mranderson&#45;resolved&#45;deps!</title>
<g id="a_node6"><a xlink:href="./mranderson.core__mranderson-resolved-deps%21.svg" xlink:title="mranderson.core/mranderson&#45;resolved&#45;deps!">
<ellipse fill="none" stroke="black" cx="848.36" cy="-566.52" rx="168.97" ry="18"/>
<text text-anchor="middle" x="848.36" y="-562.82" font-family="Times,serif" font-size="14.00">mranderson.core/mranderson&#45;resolved&#45;deps!</text>
</a>
</g>
</g>
<!-- mranderson.core/mranderson&#45;resolved&#45;deps!&#45;&gt;mranderson.core/unzip&#45;artifact! -->
<g id="edge6" class="edge">
<title>mranderson.core/mranderson&#45;resolved&#45;deps!&#45;&gt;mranderson.core/unzip&#45;artifact!</title>
<path fill="none" stroke="blue" d="M849.98,-584.6C850.21,-587.14 850.44,-589.8 850.68,-592.47"/>
<polygon fill="blue" stroke="blue" points="847.21,-592.99 851.59,-602.64 854.19,-592.37 847.21,-592.99"/>
</g>
<!-- mranderson.core/mranderson&#45;resolved&#45;deps!&#45;&gt;mranderson.core/update&#45;artifact! -->
<g id="edge7" class="edge">
<title>mranderson.core/mranderson&#45;resolved&#45;deps!&#45;&gt;mranderson.core/update&#45;artifact!</title>
<path fill="none" stroke="blue" d="M851.84,-548.47C858.97,-511.52 875.27,-427.03 883.79,-382.87"/>
<polygon fill="blue" stroke="blue" points="887.27,-383.3 885.73,-372.82 880.39,-381.98 887.27,-383.3"/>
</g>
<!-- mranderson.core/mranderson&#45;resolved&#45;deps!&#45;&gt;mranderson.util/info -->
<g id="edge8" class="edge">
<title>mranderson.core/mranderson&#45;resolved&#45;deps!&#45;&gt;mranderson.util/info</title>
<path fill="none" stroke="black" d="M800.52,-549.17C736.36,-525.91 622.88,-484.75 556.54,-460.7"/>
<polygon fill="black" stroke="black" points="557.7,-457.4 547.11,-457.28 555.32,-463.98 557.7,-457.4"/>
</g>
<!-- mranderson.core/mranderson&#45;resolved&#45;deps!&#45;&gt;mranderson.core/print&#45;dep -->
<g id="edge9" class="edge">
<title>mranderson.core/mranderson&#45;resolved&#45;deps!&#45;&gt;mranderson.core/print&#45;dep</title>
<path fill="none" stroke="blue" d="M813.16,-584.14C767.46,-607.02 687.74,-646.93 638.41,-671.62"/>
<polygon fill="blue" stroke="blue" points="636.64,-668.59 629.27,-676.2 639.78,-674.85 636.64,-668.59"/>
</g>
<!-- mranderson.util/apply&#45;jarjar! -->
<g id="node7" class="node">
<title>mranderson.util/apply&#45;jarjar!</title>
<g id="a_node7"><a xlink:href="./mranderson.util__apply-jarjar%21.svg" xlink:title="mranderson.util/apply&#45;jarjar!">
<ellipse fill="none" stroke="black" cx="112.82" cy="-491.45" rx="113.18" ry="18"/>
<text text-anchor="middle" x="112.82" y="-487.75" font-family="Times,serif" font-size="14.00">mranderson.util/apply&#45;jarjar!</text>
</a>
</g>
</g>
<!-- mranderson.util/apply&#45;jarjar!&#45;&gt;mranderson.util/info -->
<g id="edge10" class="edge">
<title>mranderson.util/apply&#45;jarjar!&#45;&gt;mranderson.util/info</title>
<path fill="none" stroke="black" d="M201.65,-480.17C267.92,-471.76 357.77,-460.35 422.33,-452.15"/>
<polygon fill="black" stroke="black" points="422.99,-455.6 432.47,-450.87 422.11,-448.65 422.99,-455.6"/>
</g>
<!-- leiningen.inline&#45;deps/lein&#45;project&#45;&gt;ctx -->
<g id="node8" class="node">
<title>leiningen.inline&#45;deps/lein&#45;project&#45;&gt;ctx</title>
<g id="a_node8"><a xlink:href="./leiningen.inline-deps__lein-project-%3Ectx.svg" xlink:title="leiningen.inline&#45;deps/lein&#45;project&#45;&gt;ctx">
<ellipse fill="none" stroke="black" cx="460.9" cy="-18.49" rx="146.77" ry="18"/>
<text text-anchor="middle" x="460.9" y="-14.79" font-family="Times,serif" font-size="14.00">leiningen.inline&#45;deps/lein&#45;project&#45;&gt;ctx</text>
</a>
</g>
</g>
<!-- leiningen.inline&#45;deps/lein&#45;project&#45;&gt;ctx&#45;&gt;mranderson.util/info -->
<g id="edge11" class="edge">
<title>leiningen.inline&#45;deps/lein&#45;project&#45;&gt;ctx&#45;&gt;mranderson.util/info</title>
<path fill="none" stroke="black" d="M462.76,-36.68C469.56,-103.02 493.06,-332.35 501.35,-413.23"/>
<polygon fill="black" stroke="black" points="497.92,-414.04 502.42,-423.63 504.88,-413.32 497.92,-414.04"/>
</g>
<!-- mranderson.core/prefix&#45;dependency&#45;imports!&#45;&gt;mranderson.util/info -->
<g id="edge14" class="edge">
<title>mranderson.core/prefix&#45;dependency&#45;imports!&#45;&gt;mranderson.util/info</title>
<path fill="none" stroke="black" d="M861.35,-326.12C783.68,-351.27 639.93,-397.82 560.57,-423.52"/>
<polygon fill="black" stroke="black" points="559.18,-420.29 550.75,-426.7 561.34,-426.95 559.18,-420.29"/>
</g>
<!-- mranderson.core/class&#45;deps&#45;jar! -->
<g id="node10" class="node">
<title>mranderson.core/class&#45;deps&#45;jar!</title>
<g id="a_node10"><a xlink:href="./mranderson.core__class-deps-jar%21.svg" xlink:title="mranderson.core/class&#45;deps&#45;jar!">
<ellipse fill="none" stroke="black" cx="188.02" cy="-261.09" rx="124.28" ry="18"/>
<text text-anchor="middle" x="188.02" y="-257.39" font-family="Times,serif" font-size="14.00">mranderson.core/class&#45;deps&#45;jar!</text>
</a>
</g>
</g>
<!-- mranderson.core/class&#45;deps&#45;jar!&#45;&gt;mranderson.util/info -->
<g id="edge15" class="edge">
<title>mranderson.core/class&#45;deps&#45;jar!&#45;&gt;mranderson.util/info</title>
<path fill="none" stroke="black" d="M218.63,-278.58C276.55,-311.66 402.05,-383.35 465.65,-419.69"/>
<polygon fill="black" stroke="black" points="464.15,-422.86 474.57,-424.78 467.62,-416.78 464.15,-422.86"/>
</g>
<!-- mranderson.core/mranderson -->
<g id="node11" class="node">
<title>mranderson.core/mranderson</title>
<g id="a_node11"><a xlink:href="./mranderson.core__mranderson.svg" xlink:title="mranderson.core/mranderson">
<ellipse fill="none" stroke="black" cx="371.44" cy="-578.85" rx="114.28" ry="18"/>
<text text-anchor="middle" x="371.44" y="-575.15" font-family="Times,serif" font-size="14.00">mranderson.core/mranderson</text>
</a>
</g>
</g>
<!-- mranderson.core/mranderson&#45;&gt;mranderson.core/mranderson&#45;unresolved&#45;deps! -->
<g id="edge16" class="edge">
<title>mranderson.core/mranderson&#45;&gt;mranderson.core/mranderson&#45;unresolved&#45;deps!</title>
<path fill="none" stroke="blue" d="M413.49,-562.08C420.45,-559.31 427.76,-556.39 434.97,-553.52"/>
<polygon fill="blue" stroke="blue" points="436.7,-556.6 444.7,-549.64 434.11,-550.09 436.7,-556.6"/>
</g>
<!-- mranderson.core/mranderson&#45;&gt;mranderson.util/info -->
<g id="edge20" class="edge">
<title>mranderson.core/mranderson&#45;&gt;mranderson.util/info</title>
<path fill="none" stroke="black" d="M388.8,-560.92C412.07,-536.91 453.5,-494.16 479.89,-466.92"/>
<polygon fill="black" stroke="black" points="482.46,-469.29 486.9,-459.68 477.43,-464.42 482.46,-469.29"/>
</g>
<!-- mranderson.core/mranderson&#45;&gt;mranderson.core/mranderson&#45;resolved&#45;deps! -->
<g id="edge17" class="edge">
<title>mranderson.core/mranderson&#45;&gt;mranderson.core/mranderson&#45;resolved&#45;deps!</title>
<path fill="none" stroke="blue" d="M484.46,-575.93C540.94,-574.47 610.54,-572.67 673.69,-571.03"/>
<polygon fill="blue" stroke="blue" points="673.87,-574.53 683.77,-570.77 673.68,-567.53 673.87,-574.53"/>
</g>
<!-- mranderson.core/mranderson&#45;&gt;mranderson.util/apply&#45;jarjar! -->
<g id="edge18" class="edge">
<title>mranderson.core/mranderson&#45;&gt;mranderson.util/apply&#45;jarjar!</title>
<path fill="none" stroke="blue" d="M323.1,-562.51C279.97,-547.94 216.73,-526.57 170.87,-511.07"/>
<polygon fill="blue" stroke="blue" points="171.96,-507.74 161.36,-507.86 169.71,-514.37 171.96,-507.74"/>
</g>
<!-- mranderson.core/mranderson&#45;&gt;mranderson.core/class&#45;deps&#45;jar! -->
<g id="edge19" class="edge">
<title>mranderson.core/mranderson&#45;&gt;mranderson.core/class&#45;deps&#45;jar!</title>
<path fill="none" stroke="blue" d="M361.05,-560.85C330.42,-507.78 240.29,-351.65 203.71,-288.28"/>
<polygon fill="blue" stroke="blue" points="206.55,-286.19 198.52,-279.28 200.48,-289.69 206.55,-286.19"/>
</g>
<!-- mranderson.core/replace&#45;class&#45;deps! -->
<g id="node12" class="node">
<title>mranderson.core/replace&#45;class&#45;deps!</title>
<g id="a_node12"><a xlink:href="./mranderson.core__replace-class-deps%21.svg" xlink:title="mranderson.core/replace&#45;class&#45;deps!">
<ellipse fill="none" stroke="black" cx="319.99" cy="-840.25" rx="139.98" ry="18"/>
<text text-anchor="middle" x="319.99" y="-836.55" font-family="Times,serif" font-size="14.00">mranderson.core/replace&#45;class&#45;deps!</text>
</a>
</g>
</g>
<!-- mranderson.core/mranderson&#45;&gt;mranderson.core/replace&#45;class&#45;deps! -->
<g id="edge21" class="edge">
<title>mranderson.core/mranderson&#45;&gt;mranderson.core/replace&#45;class&#45;deps!</title>
<path fill="none" stroke="blue" d="M367.82,-597.23C358.94,-642.33 336.04,-758.71 325.48,-812.38"/>
<polygon fill="blue" stroke="blue" points="322.04,-811.75 323.54,-822.24 328.9,-813.1 322.04,-811.75"/>
</g>
<!-- mranderson.core/replace&#45;class&#45;deps!&#45;&gt;mranderson.util/info -->
<g id="edge23" class="edge">
<title>mranderson.core/replace&#45;class&#45;deps!&#45;&gt;mranderson.util/info</title>
<path fill="none" stroke="black" d="M328.39,-822.09C357.77,-758.56 456.08,-545.96 491.46,-469.47"/>
<polygon fill="black" stroke="black" points="494.81,-470.56 495.83,-460.01 488.45,-467.62 494.81,-470.56"/>
</g>
</g>
</svg>
