<?xml version="1.0" encoding="UTF-8" standalone="no"?>
<!DOCTYPE svg PUBLIC "-//W3C//DTD SVG 1.1//EN"
 "http://www.w3.org/Graphics/SVG/1.1/DTD/svg11.dtd">
<!-- Generated by graphviz version 2.43.0 (0)
 -->
<!-- Title: graph Pages: 1 -->
<svg width="2188pt" height="260pt"
 viewBox="0.00 0.00 2188.10 260.00" xmlns="http://www.w3.org/2000/svg" xmlns:xlink="http://www.w3.org/1999/xlink">
<g id="graph0" class="graph" transform="scale(1 1) rotate(0) translate(4 256)">
<title>graph</title>
<polygon fill="white" stroke="transparent" points="-4,4 -4,-256 2184.1,-256 2184.1,4 -4,4"/>
<!-- mranderson.move/replace&#45;in&#45;import* -->
<g id="node1" class="node">
<title>mranderson.move/replace&#45;in&#45;import*</title>
<g id="a_node1"><a xlink:href="./mranderson.move__replace-in-import*.svg" xlink:title="mranderson.move/replace&#45;in&#45;import*">
<ellipse fill="none" stroke="black" cx="977.13" cy="-234" rx="142.43" ry="18"/>
<text text-anchor="middle" x="977.13" y="-229.8" font-family="Times,serif" font-size="14.00">mranderson.move/replace&#45;in&#45;import*</text>
</a>
</g>
</g>
<!-- rewrite&#45;clj.zip/root -->
<g id="node2" class="node">
<title>rewrite&#45;clj.zip/root</title>
<ellipse fill="none" stroke="black" cx="92.13" cy="-162" rx="76.8" ry="18"/>
<text text-anchor="middle" x="92.13" y="-157.8" font-family="Times,serif" font-size="14.00">rewrite&#45;clj.zip/root</text>
</g>
<!-- mranderson.move/replace&#45;in&#45;import*&#45;&gt;rewrite&#45;clj.zip/root -->
<g id="edge1" class="edge">
<title>mranderson.move/replace&#45;in&#45;import*&#45;&gt;rewrite&#45;clj.zip/root</title>
<path fill="none" stroke="black" d="M839.46,-229.26C679.81,-223.67 409,-210.35 178.13,-180 171.08,-179.07 163.73,-177.92 156.44,-176.65"/>
<polygon fill="black" stroke="black" points="157.01,-173.2 146.55,-174.86 155.77,-180.08 157.01,-173.2"/>
</g>
<!-- clojure.core/some&#45;&gt; -->
<g id="node3" class="node">
<title>clojure.core/some&#45;&gt;</title>
<ellipse fill="none" stroke="black" cx="268.13" cy="-162" rx="81.29" ry="18"/>
<text text-anchor="middle" x="268.13" y="-157.8" font-family="Times,serif" font-size="14.00">clojure.core/some&#45;&gt;</text>
</g>
<!-- mranderson.move/replace&#45;in&#45;import*&#45;&gt;clojure.core/some&#45;&gt; -->
<g id="edge2" class="edge">
<title>mranderson.move/replace&#45;in&#45;import*&#45;&gt;clojure.core/some&#45;&gt;</title>
<path fill="none" stroke="black" d="M849.87,-225.88C724.43,-217.98 527.51,-203.19 358.13,-180 350.79,-179 343.14,-177.79 335.54,-176.5"/>
<polygon fill="black" stroke="black" points="336.06,-173.04 325.6,-174.75 334.85,-179.93 336.06,-173.04"/>
</g>
<!-- mranderson.move/java&#45;style&#45;prefix? -->
<g id="node4" class="node">
<title>mranderson.move/java&#45;style&#45;prefix?</title>
<g id="a_node4"><a xlink:href="./mranderson.move__java-style-prefix%3F.svg" xlink:title="mranderson.move/java&#45;style&#45;prefix?">
<ellipse fill="none" stroke="black" cx="505.13" cy="-162" rx="138.1" ry="18"/>
<text text-anchor="middle" x="505.13" y="-157.8" font-family="Times,serif" font-size="14.00">mranderson.move/java&#45;style&#45;prefix?</text>
</a>
</g>
</g>
<!-- mranderson.move/replace&#45;in&#45;import*&#45;&gt;mranderson.move/java&#45;style&#45;prefix? -->
<g id="edge3" class="edge">
<title>mranderson.move/replace&#45;in&#45;import*&#45;&gt;mranderson.move/java&#45;style&#45;prefix?</title>
<path fill="none" stroke="black" d="M888.63,-219.87C807.19,-207.8 686.63,-189.92 602.5,-177.44"/>
<polygon fill="black" stroke="black" points="602.83,-173.95 592.42,-175.95 601.8,-180.87 602.83,-173.95"/>
</g>
<!-- clojure.core/loop -->
<g id="node5" class="node">
<title>clojure.core/loop</title>
<ellipse fill="none" stroke="black" cx="731.13" cy="-162" rx="70.03" ry="18"/>
<text text-anchor="middle" x="731.13" y="-157.8" font-family="Times,serif" font-size="14.00">clojure.core/loop</text>
</g>
<!-- mranderson.move/replace&#45;in&#45;import*&#45;&gt;clojure.core/loop -->
<g id="edge4" class="edge">
<title>mranderson.move/replace&#45;in&#45;import*&#45;&gt;clojure.core/loop</title>
<path fill="none" stroke="black" d="M922.23,-217.38C881.68,-205.84 826.7,-190.19 786.13,-178.65"/>
<polygon fill="black" stroke="black" points="786.97,-175.25 776.4,-175.88 785.06,-181.98 786.97,-175.25"/>
</g>
<!-- rewrite&#45;clj.zip/edit -->
<g id="node6" class="node">
<title>rewrite&#45;clj.zip/edit</title>
<ellipse fill="none" stroke="black" cx="895.13" cy="-162" rx="75.83" ry="18"/>
<text text-anchor="middle" x="895.13" y="-157.8" font-family="Times,serif" font-size="14.00">rewrite&#45;clj.zip/edit</text>
</g>
<!-- mranderson.move/replace&#45;in&#45;import*&#45;&gt;rewrite&#45;clj.zip/edit -->
<g id="edge5" class="edge">
<title>mranderson.move/replace&#45;in&#45;import*&#45;&gt;rewrite&#45;clj.zip/edit</title>
<path fill="none" stroke="black" d="M957.28,-216.05C946.73,-207.05 933.6,-195.84 922.14,-186.05"/>
<polygon fill="black" stroke="black" points="924.39,-183.38 914.52,-179.55 919.85,-188.7 924.39,-183.38"/>
</g>
<!-- clojure.core/if&#45;let -->
<g id="node7" class="node">
<title>clojure.core/if&#45;let</title>
<ellipse fill="none" stroke="black" cx="1060.13" cy="-162" rx="71.96" ry="18"/>
<text text-anchor="middle" x="1060.13" y="-157.8" font-family="Times,serif" font-size="14.00">clojure.core/if&#45;let</text>
</g>
<!-- mranderson.move/replace&#45;in&#45;import*&#45;&gt;clojure.core/if&#45;let -->
<g id="edge6" class="edge">
<title>mranderson.move/replace&#45;in&#45;import*&#45;&gt;clojure.core/if&#45;let</title>
<path fill="none" stroke="black" d="M997.22,-216.05C1007.9,-207.05 1021.19,-195.84 1032.8,-186.05"/>
<polygon fill="black" stroke="black" points="1035.12,-188.67 1040.51,-179.55 1030.61,-183.32 1035.12,-188.67"/>
</g>
<!-- clojure.core/partial -->
<g id="node8" class="node">
<title>clojure.core/partial</title>
<ellipse fill="none" stroke="black" cx="1227.13" cy="-162" rx="77.26" ry="18"/>
<text text-anchor="middle" x="1227.13" y="-157.8" font-family="Times,serif" font-size="14.00">clojure.core/partial</text>
</g>
<!-- mranderson.move/replace&#45;in&#45;import*&#45;&gt;clojure.core/partial -->
<g id="edge7" class="edge">
<title>mranderson.move/replace&#45;in&#45;import*&#45;&gt;clojure.core/partial</title>
<path fill="none" stroke="black" d="M1032.93,-217.38C1073.61,-205.99 1128.57,-190.6 1169.64,-179.1"/>
<polygon fill="black" stroke="black" points="1170.81,-182.4 1179.5,-176.34 1168.93,-175.66 1170.81,-182.4"/>
</g>
<!-- clojure.core/recur -->
<g id="node9" class="node">
<title>clojure.core/recur</title>
<ellipse fill="none" stroke="black" cx="1395.13" cy="-162" rx="72.91" ry="18"/>
<text text-anchor="middle" x="1395.13" y="-157.8" font-family="Times,serif" font-size="14.00">clojure.core/recur</text>
</g>
<!-- mranderson.move/replace&#45;in&#45;import*&#45;&gt;clojure.core/recur -->
<g id="edge8" class="edge">
<title>mranderson.move/replace&#45;in&#45;import*&#45;&gt;clojure.core/recur</title>
<path fill="none" stroke="black" d="M1067.18,-220C1134.95,-209.92 1230.05,-195.15 1313.13,-180 1319.23,-178.89 1325.58,-177.67 1331.91,-176.42"/>
<polygon fill="black" stroke="black" points="1332.71,-179.83 1341.83,-174.44 1331.34,-172.97 1332.71,-179.83"/>
</g>
<!-- rewrite&#45;clj.zip/find&#45;next&#45;depth&#45;first -->
<g id="node10" class="node">
<title>rewrite&#45;clj.zip/find&#45;next&#45;depth&#45;first</title>
<ellipse fill="none" stroke="black" cx="1619.13" cy="-162" rx="133.77" ry="18"/>
<text text-anchor="middle" x="1619.13" y="-157.8" font-family="Times,serif" font-size="14.00">rewrite&#45;clj.zip/find&#45;next&#45;depth&#45;first</text>
</g>
<!-- mranderson.move/replace&#45;in&#45;import*&#45;&gt;rewrite&#45;clj.zip/find&#45;next&#45;depth&#45;first -->
<g id="edge9" class="edge">
<title>mranderson.move/replace&#45;in&#45;import*&#45;&gt;rewrite&#45;clj.zip/find&#45;next&#45;depth&#45;first</title>
<path fill="none" stroke="black" d="M1084.47,-222.05C1185.75,-211.61 1341.82,-195.27 1477.13,-180 1488.89,-178.67 1501.19,-177.25 1513.43,-175.82"/>
<polygon fill="black" stroke="black" points="1514.15,-179.25 1523.67,-174.61 1513.33,-172.3 1514.15,-179.25"/>
</g>
<!-- mranderson.move/&#45;&gt;new&#45;import&#45;node -->
<g id="node11" class="node">
<title>mranderson.move/&#45;&gt;new&#45;import&#45;node</title>
<g id="a_node11"><a xlink:href="./mranderson.move__-%3Enew-import-node.svg" xlink:title="mranderson.move/&#45;&gt;new&#45;import&#45;node">
<ellipse fill="none" stroke="black" cx="1916.13" cy="-162" rx="145.49" ry="18"/>
<text text-anchor="middle" x="1916.13" y="-157.8" font-family="Times,serif" font-size="14.00">mranderson.move/&#45;&gt;new&#45;import&#45;node</text>
</a>
</g>
</g>
<!-- mranderson.move/replace&#45;in&#45;import*&#45;&gt;mranderson.move/&#45;&gt;new&#45;import&#45;node -->
<g id="edge10" class="edge">
<title>mranderson.move/replace&#45;in&#45;import*&#45;&gt;mranderson.move/&#45;&gt;new&#45;import&#45;node</title>
<path fill="none" stroke="black" d="M1105.07,-226.04C1260.56,-217.19 1530.83,-200.57 1762.13,-180 1775.71,-178.79 1789.96,-177.4 1804.06,-175.93"/>
<polygon fill="black" stroke="black" points="1804.72,-179.38 1814.3,-174.86 1803.99,-172.42 1804.72,-179.38"/>
</g>
<!-- mranderson.move/java&#45;package -->
<g id="node12" class="node">
<title>mranderson.move/java&#45;package</title>
<g id="a_node12"><a xlink:href="./mranderson.move__java-package.svg" xlink:title="mranderson.move/java&#45;package">
<ellipse fill="none" stroke="black" cx="1363.13" cy="-90" rx="122.62" ry="18"/>
<text text-anchor="middle" x="1363.13" y="-85.8" font-family="Times,serif" font-size="14.00">mranderson.move/java&#45;package</text>
</a>
</g>
</g>
<!-- mranderson.move/java&#45;style&#45;prefix?&#45;&gt;mranderson.move/java&#45;package -->
<g id="edge11" class="edge">
<title>mranderson.move/java&#45;style&#45;prefix?&#45;&gt;mranderson.move/java&#45;package</title>
<path fill="none" stroke="black" d="M602.33,-149.19C618.93,-147.34 636.02,-145.53 652.13,-144 859.26,-124.31 1100.92,-107.63 1242.46,-98.49"/>
<polygon fill="black" stroke="black" points="1242.73,-101.98 1252.48,-97.85 1242.28,-95 1242.73,-101.98"/>
</g>
<!-- rewrite&#45;clj.zip.base/tag -->
<g id="node13" class="node">
<title>rewrite&#45;clj.zip.base/tag</title>
<ellipse fill="none" stroke="black" cx="91.13" cy="-90" rx="91.26" ry="18"/>
<text text-anchor="middle" x="91.13" y="-85.8" font-family="Times,serif" font-size="14.00">rewrite&#45;clj.zip.base/tag</text>
</g>
<!-- mranderson.move/java&#45;style&#45;prefix?&#45;&gt;rewrite&#45;clj.zip.base/tag -->
<g id="edge12" class="edge">
<title>mranderson.move/java&#45;style&#45;prefix?&#45;&gt;rewrite&#45;clj.zip.base/tag</title>
<path fill="none" stroke="black" d="M424.13,-147.35C360.72,-136.67 270.31,-121.41 191.13,-108 183.56,-106.72 175.67,-105.38 167.79,-104.04"/>
<polygon fill="black" stroke="black" points="168.27,-100.57 157.83,-102.35 167.1,-107.47 168.27,-100.57"/>
</g>
<!-- clojure.string/starts&#45;with? -->
<g id="node14" class="node">
<title>clojure.string/starts&#45;with?</title>
<ellipse fill="none" stroke="black" cx="301.13" cy="-90" rx="100.96" ry="18"/>
<text text-anchor="middle" x="301.13" y="-85.8" font-family="Times,serif" font-size="14.00">clojure.string/starts&#45;with?</text>
</g>
<!-- mranderson.move/java&#45;style&#45;prefix?&#45;&gt;clojure.string/starts&#45;with? -->
<g id="edge13" class="edge">
<title>mranderson.move/java&#45;style&#45;prefix?&#45;&gt;clojure.string/starts&#45;with?</title>
<path fill="none" stroke="black" d="M458.59,-145.03C427.79,-134.46 387.3,-120.57 355.09,-109.51"/>
<polygon fill="black" stroke="black" points="355.97,-106.12 345.38,-106.18 353.7,-112.74 355.97,-106.12"/>
</g>
<!-- clojure.core/when&#45;let -->
<g id="node15" class="node">
<title>clojure.core/when&#45;let</title>
<ellipse fill="none" stroke="black" cx="505.13" cy="-90" rx="85.47" ry="18"/>
<text text-anchor="middle" x="505.13" y="-85.8" font-family="Times,serif" font-size="14.00">clojure.core/when&#45;let</text>
</g>
<!-- mranderson.move/java&#45;style&#45;prefix?&#45;&gt;clojure.core/when&#45;let -->
<g id="edge14" class="edge">
<title>mranderson.move/java&#45;style&#45;prefix?&#45;&gt;clojure.core/when&#45;let</title>
<path fill="none" stroke="black" d="M505.13,-143.7C505.13,-135.98 505.13,-126.71 505.13,-118.11"/>
<polygon fill="black" stroke="black" points="508.63,-118.1 505.13,-108.1 501.63,-118.1 508.63,-118.1"/>
</g>
<!-- rewrite&#45;clj.zip.base/sexpr -->
<g id="node16" class="node">
<title>rewrite&#45;clj.zip.base/sexpr</title>
<ellipse fill="none" stroke="black" cx="708.13" cy="-90" rx="99.47" ry="18"/>
<text text-anchor="middle" x="708.13" y="-85.8" font-family="Times,serif" font-size="14.00">rewrite&#45;clj.zip.base/sexpr</text>
</g>
<!-- mranderson.move/java&#45;style&#45;prefix?&#45;&gt;rewrite&#45;clj.zip.base/sexpr -->
<g id="edge15" class="edge">
<title>mranderson.move/java&#45;style&#45;prefix?&#45;&gt;rewrite&#45;clj.zip.base/sexpr</title>
<path fill="none" stroke="black" d="M551.45,-145.03C582.1,-134.46 622.39,-120.57 654.44,-109.51"/>
<polygon fill="black" stroke="black" points="655.79,-112.75 664.1,-106.18 653.51,-106.13 655.79,-112.75"/>
</g>
<!-- clojure.core/when&#45;not -->
<g id="node17" class="node">
<title>clojure.core/when&#45;not</title>
<ellipse fill="none" stroke="black" cx="913.13" cy="-90" rx="87.89" ry="18"/>
<text text-anchor="middle" x="913.13" y="-85.8" font-family="Times,serif" font-size="14.00">clojure.core/when&#45;not</text>
</g>
<!-- mranderson.move/java&#45;style&#45;prefix?&#45;&gt;clojure.core/when&#45;not -->
<g id="edge16" class="edge">
<title>mranderson.move/java&#45;style&#45;prefix?&#45;&gt;clojure.core/when&#45;not</title>
<path fill="none" stroke="black" d="M585.7,-147.38C648.49,-136.73 737.87,-121.53 816.13,-108 823.45,-106.73 831.08,-105.41 838.71,-104.08"/>
<polygon fill="black" stroke="black" points="839.45,-107.5 848.7,-102.34 838.25,-100.61 839.45,-107.5"/>
</g>
<!-- mranderson.move/&#45;&gt;new&#45;import&#45;node&#45;&gt;mranderson.move/java&#45;package -->
<g id="edge17" class="edge">
<title>mranderson.move/&#45;&gt;new&#45;import&#45;node&#45;&gt;mranderson.move/java&#45;package</title>
<path fill="none" stroke="black" d="M1817.87,-148.71C1732.54,-138.02 1605.66,-122.07 1495.13,-108 1484.43,-106.64 1473.23,-105.21 1462.09,-103.78"/>
<polygon fill="black" stroke="black" points="1462.25,-100.27 1451.88,-102.47 1461.35,-107.21 1462.25,-100.27"/>
</g>
<!-- clojure.core/cond -->
<g id="node18" class="node">
<title>clojure.core/cond</title>
<ellipse fill="none" stroke="black" cx="1576.13" cy="-90" rx="71.97" ry="18"/>
<text text-anchor="middle" x="1576.13" y="-85.8" font-family="Times,serif" font-size="14.00">clojure.core/cond</text>
</g>
<!-- mranderson.move/&#45;&gt;new&#45;import&#45;node&#45;&gt;clojure.core/cond -->
<g id="edge18" class="edge">
<title>mranderson.move/&#45;&gt;new&#45;import&#45;node&#45;&gt;clojure.core/cond</title>
<path fill="none" stroke="black" d="M1843.53,-146.37C1791.37,-135.81 1719.38,-121.17 1656.13,-108 1650.52,-106.83 1644.69,-105.61 1638.85,-104.38"/>
<polygon fill="black" stroke="black" points="1639.56,-100.95 1629.05,-102.31 1638.11,-107.8 1639.56,-100.95"/>
</g>
<!-- clojure.core/symbol? -->
<g id="node19" class="node">
<title>clojure.core/symbol?</title>
<ellipse fill="none" stroke="black" cx="1750.13" cy="-90" rx="84.52" ry="18"/>
<text text-anchor="middle" x="1750.13" y="-85.8" font-family="Times,serif" font-size="14.00">clojure.core/symbol?</text>
</g>
<!-- mranderson.move/&#45;&gt;new&#45;import&#45;node&#45;&gt;clojure.core/symbol? -->
<g id="edge19" class="edge">
<title>mranderson.move/&#45;&gt;new&#45;import&#45;node&#45;&gt;clojure.core/symbol?</title>
<path fill="none" stroke="black" d="M1877.21,-144.59C1852.91,-134.34 1821.5,-121.1 1795.99,-110.34"/>
<polygon fill="black" stroke="black" points="1797.11,-107.01 1786.53,-106.35 1794.39,-113.46 1797.11,-107.01"/>
</g>
<!-- clojure.core/let -->
<g id="node20" class="node">
<title>clojure.core/let</title>
<ellipse fill="none" stroke="black" cx="1916.13" cy="-90" rx="63.27" ry="18"/>
<text text-anchor="middle" x="1916.13" y="-85.8" font-family="Times,serif" font-size="14.00">clojure.core/let</text>
</g>
<!-- mranderson.move/&#45;&gt;new&#45;import&#45;node&#45;&gt;clojure.core/let -->
<g id="edge20" class="edge">
<title>mranderson.move/&#45;&gt;new&#45;import&#45;node&#45;&gt;clojure.core/let</title>
<path fill="none" stroke="black" d="M1916.13,-143.7C1916.13,-135.98 1916.13,-126.71 1916.13,-118.11"/>
<polygon fill="black" stroke="black" points="1919.63,-118.1 1916.13,-108.1 1912.63,-118.1 1919.63,-118.1"/>
</g>
<!-- clojure.core/symbol -->
<g id="node21" class="node">
<title>clojure.core/symbol</title>
<ellipse fill="none" stroke="black" cx="2078.13" cy="-90" rx="80.67" ry="18"/>
<text text-anchor="middle" x="2078.13" y="-85.8" font-family="Times,serif" font-size="14.00">clojure.core/symbol</text>
</g>
<!-- mranderson.move/&#45;&gt;new&#45;import&#45;node&#45;&gt;clojure.core/symbol -->
<g id="edge21" class="edge">
<title>mranderson.move/&#45;&gt;new&#45;import&#45;node&#45;&gt;clojure.core/symbol</title>
<path fill="none" stroke="black" d="M1954.11,-144.59C1977.91,-134.3 2008.69,-121 2033.63,-110.23"/>
<polygon fill="black" stroke="black" points="2035.09,-113.41 2042.88,-106.23 2032.31,-106.99 2035.09,-113.41"/>
</g>
<!-- clojure.string/replace -->
<g id="node22" class="node">
<title>clojure.string/replace</title>
<ellipse fill="none" stroke="black" cx="1863.13" cy="-18" rx="84.99" ry="18"/>
<text text-anchor="middle" x="1863.13" y="-13.8" font-family="Times,serif" font-size="14.00">clojure.string/replace</text>
</g>
<!-- mranderson.move/&#45;&gt;new&#45;import&#45;node&#45;&gt;clojure.string/replace -->
<g id="edge22" class="edge">
<title>mranderson.move/&#45;&gt;new&#45;import&#45;node&#45;&gt;clojure.string/replace</title>
<path fill="none" stroke="black" d="M2046.34,-153.82C2128.08,-144.36 2210.62,-122.51 2168.13,-72 2141.42,-40.25 2035.99,-27.52 1956.51,-22.41"/>
<polygon fill="black" stroke="black" points="1956.65,-18.92 1946.46,-21.8 1956.23,-25.9 1956.65,-18.92"/>
</g>
<!-- mranderson.move/java&#45;package&#45;&gt;clojure.string/replace -->
<g id="edge24" class="edge">
<title>mranderson.move/java&#45;package&#45;&gt;clojure.string/replace</title>
<path fill="none" stroke="black" d="M1448.52,-77.05C1542.61,-63.87 1692.71,-42.86 1784.16,-30.06"/>
<polygon fill="black" stroke="black" points="1784.77,-33.5 1794.19,-28.65 1783.8,-26.57 1784.77,-33.5"/>
</g>
<!-- clojure.core/name -->
<g id="node23" class="node">
<title>clojure.core/name</title>
<ellipse fill="none" stroke="black" cx="1363.13" cy="-18" rx="73.89" ry="18"/>
<text text-anchor="middle" x="1363.13" y="-13.8" font-family="Times,serif" font-size="14.00">clojure.core/name</text>
</g>
<!-- mranderson.move/java&#45;package&#45;&gt;clojure.core/name -->
<g id="edge23" class="edge">
<title>mranderson.move/java&#45;package&#45;&gt;clojure.core/name</title>
<path fill="none" stroke="black" d="M1363.13,-71.7C1363.13,-63.98 1363.13,-54.71 1363.13,-46.11"/>
<polygon fill="black" stroke="black" points="1366.63,-46.1 1363.13,-36.1 1359.63,-46.1 1366.63,-46.1"/>
</g>
</g>
</svg>
