<?xml version="1.0" encoding="UTF-8" standalone="no"?>
<!DOCTYPE svg PUBLIC "-//W3C//DTD SVG 1.1//EN"
 "http://www.w3.org/Graphics/SVG/1.1/DTD/svg11.dtd">
<!-- Generated by graphviz version 2.43.0 (0)
 -->
<!-- Title: graph Pages: 1 -->
<svg width="344pt" height="116pt"
 viewBox="0.00 0.00 343.69 116.00" xmlns="http://www.w3.org/2000/svg" xmlns:xlink="http://www.w3.org/1999/xlink">
<g id="graph0" class="graph" transform="scale(1 1) rotate(0) translate(4 112)">
<title>graph</title>
<polygon fill="white" stroke="transparent" points="-4,4 -4,-112 339.69,-112 339.69,4 -4,4"/>
<!-- mranderson.move/java&#45;package -->
<g id="node1" class="node">
<title>mranderson.move/java&#45;package</title>
<g id="a_node1"><a xlink:href="./mranderson.move__java-package.svg" xlink:title="mranderson.move/java&#45;package">
<ellipse fill="none" stroke="black" cx="161.7" cy="-90" rx="122.62" ry="18"/>
<text text-anchor="middle" x="161.7" y="-85.8" font-family="Times,serif" font-size="14.00">mranderson.move/java&#45;package</text>
</a>
</g>
</g>
<!-- clojure.core/name -->
<g id="node2" class="node">
<title>clojure.core/name</title>
<ellipse fill="none" stroke="black" cx="73.7" cy="-18" rx="73.89" ry="18"/>
<text text-anchor="middle" x="73.7" y="-13.8" font-family="Times,serif" font-size="14.00">clojure.core/name</text>
</g>
<!-- mranderson.move/java&#45;package&#45;&gt;clojure.core/name -->
<g id="edge1" class="edge">
<title>mranderson.move/java&#45;package&#45;&gt;clojure.core/name</title>
<path fill="none" stroke="black" d="M140.39,-72.05C128.88,-62.89 114.5,-51.46 102.05,-41.56"/>
<polygon fill="black" stroke="black" points="104.2,-38.79 94.2,-35.31 99.84,-44.27 104.2,-38.79"/>
</g>
<!-- clojure.string/replace -->
<g id="node3" class="node">
<title>clojure.string/replace</title>
<ellipse fill="none" stroke="black" cx="250.7" cy="-18" rx="84.99" ry="18"/>
<text text-anchor="middle" x="250.7" y="-13.8" font-family="Times,serif" font-size="14.00">clojure.string/replace</text>
</g>
<!-- mranderson.move/java&#45;package&#45;&gt;clojure.string/replace -->
<g id="edge2" class="edge">
<title>mranderson.move/java&#45;package&#45;&gt;clojure.string/replace</title>
<path fill="none" stroke="black" d="M183.24,-72.05C194.8,-62.96 209.21,-51.63 221.74,-41.77"/>
<polygon fill="black" stroke="black" points="223.96,-44.48 229.66,-35.55 219.63,-38.98 223.96,-44.48"/>
</g>
</g>
</svg>
