<?xml version="1.0" encoding="UTF-8" standalone="no"?>
<!DOCTYPE svg PUBLIC "-//W3C//DTD SVG 1.1//EN"
 "http://www.w3.org/Graphics/SVG/1.1/DTD/svg11.dtd">
<!-- Generated by graphviz version 2.47.3 (20210619.1520)
 -->
<!-- Title: graph Pages: 1 -->
<svg width="2530pt" height="332pt"
 viewBox="0.00 0.00 2530.48 332.00" xmlns="http://www.w3.org/2000/svg" xmlns:xlink="http://www.w3.org/1999/xlink">
<g id="graph0" class="graph" transform="scale(1 1) rotate(0) translate(4 328)">
<title>graph</title>
<polygon fill="white" stroke="transparent" points="-4,4 -4,-328 2526.48,-328 2526.48,4 -4,4"/>
<!-- mranderson.move/replace&#45;in&#45;import -->
<g id="node1" class="node">
<title>mranderson.move/replace&#45;in&#45;import</title>
<g id="a_node1"><a xlink:href="./mranderson.move__replace-in-import-usgs.svg" xlink:title="mranderson.move/replace&#45;in&#45;import">
<ellipse fill="none" stroke="black" cx="945.59" cy="-306" rx="139.98" ry="18"/>
<text text-anchor="middle" x="945.59" y="-302.3" font-family="Times,serif" font-size="14.00">mranderson.move/replace&#45;in&#45;import</text>
</a>
</g>
</g>
<!-- rewrite&#45;clj.zip/root -->
<g id="node2" class="node">
<title>rewrite&#45;clj.zip/root</title>
<g id="a_node2"><a xlink:href="./rewrite-clj.zip__root-usgs.svg" xlink:title="rewrite&#45;clj.zip/root">
<ellipse fill="none" stroke="black" cx="308.59" cy="-162" rx="77.19" ry="18"/>
<text text-anchor="middle" x="308.59" y="-158.3" font-family="Times,serif" font-size="14.00">rewrite&#45;clj.zip/root</text>
</a>
</g>
</g>
<!-- mranderson.move/replace&#45;in&#45;import&#45;&gt;rewrite&#45;clj.zip/root -->
<g id="edge1" class="edge">
<title>mranderson.move/replace&#45;in&#45;import&#45;&gt;rewrite&#45;clj.zip/root</title>
<path fill="none" stroke="black" d="M820.68,-297.79C736.51,-290.84 623.58,-277.46 526.59,-252 462.26,-235.11 391.65,-203.74 348.72,-183.12"/>
<polygon fill="black" stroke="black" points="350,-179.85 339.47,-178.64 346.95,-186.15 350,-179.85"/>
</g>
<!-- clojure.core/&#45;&gt; -->
<g id="node3" class="node">
<title>clojure.core/&#45;&gt;</title>
<g id="a_node3"><a xlink:href="./clojure.core__-%3E-usgs.svg" xlink:title="clojure.core/&#45;&gt;">
<ellipse fill="none" stroke="black" cx="599.59" cy="-234" rx="63.89" ry="18"/>
<text text-anchor="middle" x="599.59" y="-230.3" font-family="Times,serif" font-size="14.00">clojure.core/&#45;&gt;</text>
</a>
</g>
</g>
<!-- mranderson.move/replace&#45;in&#45;import&#45;&gt;clojure.core/&#45;&gt; -->
<g id="edge2" class="edge">
<title>mranderson.move/replace&#45;in&#45;import&#45;&gt;clojure.core/&#45;&gt;</title>
<path fill="none" stroke="black" d="M871.29,-290.71C817.46,-280.25 742.95,-265.58 677.59,-252 671.36,-250.7 664.85,-249.33 658.37,-247.94"/>
<polygon fill="black" stroke="black" points="658.76,-244.44 648.24,-245.76 657.28,-251.28 658.76,-244.44"/>
</g>
<!-- mranderson.move/import? -->
<g id="node4" class="node">
<title>mranderson.move/import?</title>
<g id="a_node4"><a xlink:href="./mranderson.move__import%3F-usgs.svg" xlink:title="mranderson.move/import?">
<ellipse fill="none" stroke="black" cx="509.59" cy="-162" rx="105.08" ry="18"/>
<text text-anchor="middle" x="509.59" y="-158.3" font-family="Times,serif" font-size="14.00">mranderson.move/import?</text>
</a>
</g>
</g>
<!-- mranderson.move/replace&#45;in&#45;import&#45;&gt;mranderson.move/import? -->
<g id="edge3" class="edge">
<title>mranderson.move/replace&#45;in&#45;import&#45;&gt;mranderson.move/import?</title>
<g id="a_edge3"><a xlink:href="./mranderson.move__import%3F.svg">
<path fill="none" stroke="black" d="M841.91,-293.87C799.39,-286.25 750.82,-273.46 710.59,-252 690.07,-241.05 692.59,-227.89 672.59,-216 645.02,-199.61 611.76,-187.62 582.49,-179.24"/>
<polygon fill="black" stroke="black" points="583.31,-175.83 572.74,-176.53 581.44,-182.58 583.31,-175.83"/>
</a>
</g>
</g>
<!-- rewrite&#45;clj.zip/node -->
<g id="node5" class="node">
<title>rewrite&#45;clj.zip/node</title>
<g id="a_node5"><a xlink:href="./rewrite-clj.zip__node-usgs.svg" xlink:title="rewrite&#45;clj.zip/node">
<ellipse fill="none" stroke="black" cx="799.59" cy="-234" rx="79.89" ry="18"/>
<text text-anchor="middle" x="799.59" y="-230.3" font-family="Times,serif" font-size="14.00">rewrite&#45;clj.zip/node</text>
</a>
</g>
</g>
<!-- mranderson.move/replace&#45;in&#45;import&#45;&gt;rewrite&#45;clj.zip/node -->
<g id="edge4" class="edge">
<title>mranderson.move/replace&#45;in&#45;import&#45;&gt;rewrite&#45;clj.zip/node</title>
<path fill="none" stroke="black" d="M910.99,-288.41C890.04,-278.36 863.18,-265.49 841.09,-254.9"/>
<polygon fill="black" stroke="black" points="842.48,-251.68 831.95,-250.51 839.45,-257.99 842.48,-251.68"/>
</g>
<!-- clojure.core/some&#45;&gt; -->
<g id="node6" class="node">
<title>clojure.core/some&#45;&gt;</title>
<g id="a_node6"><a xlink:href="./clojure.core__some-%3E-usgs.svg" xlink:title="clojure.core/some&#45;&gt;">
<ellipse fill="none" stroke="black" cx="715.59" cy="-162" rx="82.59" ry="18"/>
<text text-anchor="middle" x="715.59" y="-158.3" font-family="Times,serif" font-size="14.00">clojure.core/some&#45;&gt;</text>
</a>
</g>
</g>
<!-- mranderson.move/replace&#45;in&#45;import&#45;&gt;clojure.core/some&#45;&gt; -->
<g id="edge5" class="edge">
<title>mranderson.move/replace&#45;in&#45;import&#45;&gt;clojure.core/some&#45;&gt;</title>
<path fill="none" stroke="black" d="M939.03,-288C930.42,-267.92 913.44,-234.86 888.59,-216 871.28,-202.86 822.12,-188.43 780.61,-177.96"/>
<polygon fill="black" stroke="black" points="781.34,-174.53 770.79,-175.52 779.65,-181.33 781.34,-174.53"/>
</g>
<!-- clojure.core/if&#45;let -->
<g id="node7" class="node">
<title>clojure.core/if&#45;let</title>
<g id="a_node7"><a xlink:href="./clojure.core__if-let-usgs.svg" xlink:title="clojure.core/if&#45;let">
<ellipse fill="none" stroke="black" cx="888.59" cy="-162" rx="72.29" ry="18"/>
<text text-anchor="middle" x="888.59" y="-158.3" font-family="Times,serif" font-size="14.00">clojure.core/if&#45;let</text>
</a>
</g>
</g>
<!-- mranderson.move/replace&#45;in&#45;import&#45;&gt;clojure.core/if&#45;let -->
<g id="edge6" class="edge">
<title>mranderson.move/replace&#45;in&#45;import&#45;&gt;clojure.core/if&#45;let</title>
<path fill="none" stroke="black" d="M942.51,-287.77C938.88,-269.46 932,-239.92 921.59,-216 917.49,-206.56 911.88,-196.82 906.46,-188.32"/>
<polygon fill="black" stroke="black" points="909.37,-186.38 900.94,-179.96 903.53,-190.23 909.37,-186.38"/>
</g>
<!-- mranderson.move/replace&#45;in&#45;import* -->
<g id="node8" class="node">
<title>mranderson.move/replace&#45;in&#45;import*</title>
<g id="a_node8"><a xlink:href="./mranderson.move__replace-in-import*-usgs.svg" xlink:title="mranderson.move/replace&#45;in&#45;import*">
<ellipse fill="none" stroke="black" cx="1117.59" cy="-234" rx="143.77" ry="18"/>
<text text-anchor="middle" x="1117.59" y="-230.3" font-family="Times,serif" font-size="14.00">mranderson.move/replace&#45;in&#45;import*</text>
</a>
</g>
</g>
<!-- mranderson.move/replace&#45;in&#45;import&#45;&gt;mranderson.move/replace&#45;in&#45;import* -->
<g id="edge7" class="edge">
<title>mranderson.move/replace&#45;in&#45;import&#45;&gt;mranderson.move/replace&#45;in&#45;import*</title>
<g id="a_edge7"><a xlink:href="./mranderson.move__replace-in-import*.svg">
<path fill="none" stroke="black" d="M985.92,-288.59C1010.5,-278.58 1042.1,-265.72 1068.18,-255.11"/>
<polygon fill="black" stroke="black" points="1069.58,-258.32 1077.52,-251.31 1066.94,-251.84 1069.58,-258.32"/>
</a>
</g>
</g>
<!-- rewrite&#45;clj.zip/replace -->
<g id="node9" class="node">
<title>rewrite&#45;clj.zip/replace</title>
<g id="a_node9"><a xlink:href="./rewrite-clj.zip__replace-usgs.svg" xlink:title="rewrite&#45;clj.zip/replace">
<ellipse fill="none" stroke="black" cx="1367.59" cy="-234" rx="88.28" ry="18"/>
<text text-anchor="middle" x="1367.59" y="-230.3" font-family="Times,serif" font-size="14.00">rewrite&#45;clj.zip/replace</text>
</a>
</g>
</g>
<!-- mranderson.move/replace&#45;in&#45;import&#45;&gt;rewrite&#45;clj.zip/replace -->
<g id="edge8" class="edge">
<title>mranderson.move/replace&#45;in&#45;import&#45;&gt;rewrite&#45;clj.zip/replace</title>
<path fill="none" stroke="black" d="M1029.47,-291.6C1095.13,-281.05 1188.72,-265.85 1270.59,-252 1277.92,-250.76 1285.55,-249.45 1293.18,-248.13"/>
<polygon fill="black" stroke="black" points="1293.92,-251.56 1303.17,-246.4 1292.72,-244.66 1293.92,-251.56"/>
</g>
<!-- rewrite&#45;clj.zip/edn -->
<g id="node10" class="node">
<title>rewrite&#45;clj.zip/edn</title>
<g id="a_node10"><a xlink:href="./rewrite-clj.zip__edn-usgs.svg" xlink:title="rewrite&#45;clj.zip/edn">
<ellipse fill="none" stroke="black" cx="1549.59" cy="-234" rx="75.29" ry="18"/>
<text text-anchor="middle" x="1549.59" y="-230.3" font-family="Times,serif" font-size="14.00">rewrite&#45;clj.zip/edn</text>
</a>
</g>
</g>
<!-- mranderson.move/replace&#45;in&#45;import&#45;&gt;rewrite&#45;clj.zip/edn -->
<g id="edge9" class="edge">
<title>mranderson.move/replace&#45;in&#45;import&#45;&gt;rewrite&#45;clj.zip/edn</title>
<path fill="none" stroke="black" d="M1063.23,-296.22C1168.69,-287.57 1327.45,-272.67 1464.59,-252 1471.29,-250.99 1478.26,-249.81 1485.2,-248.55"/>
<polygon fill="black" stroke="black" points="1486.13,-251.94 1495.32,-246.66 1484.84,-245.06 1486.13,-251.94"/>
</g>
<!-- rewrite&#45;clj.zip/up -->
<g id="node11" class="node">
<title>rewrite&#45;clj.zip/up</title>
<g id="a_node11"><a xlink:href="./rewrite-clj.zip__up-usgs.svg" xlink:title="rewrite&#45;clj.zip/up">
<ellipse fill="none" stroke="black" cx="1714.59" cy="-234" rx="71.49" ry="18"/>
<text text-anchor="middle" x="1714.59" y="-230.3" font-family="Times,serif" font-size="14.00">rewrite&#45;clj.zip/up</text>
</a>
</g>
</g>
<!-- mranderson.move/replace&#45;in&#45;import&#45;&gt;rewrite&#45;clj.zip/up -->
<g id="edge10" class="edge">
<title>mranderson.move/replace&#45;in&#45;import&#45;&gt;rewrite&#45;clj.zip/up</title>
<path fill="none" stroke="black" d="M1077.4,-299.94C1216.3,-293.42 1441.17,-279.48 1633.59,-252 1640.19,-251.06 1647.05,-249.9 1653.87,-248.63"/>
<polygon fill="black" stroke="black" points="1654.63,-252.05 1663.79,-246.72 1653.3,-245.18 1654.63,-252.05"/>
</g>
<!-- rewrite&#45;clj.zip/find&#45;next&#45;depth&#45;first -->
<g id="node12" class="node">
<title>rewrite&#45;clj.zip/find&#45;next&#45;depth&#45;first</title>
<g id="a_node12"><a xlink:href="./rewrite-clj.zip__find-next-depth-first-usgs.svg" xlink:title="rewrite&#45;clj.zip/find&#45;next&#45;depth&#45;first">
<ellipse fill="none" stroke="black" cx="2388.59" cy="-162" rx="133.78" ry="18"/>
<text text-anchor="middle" x="2388.59" y="-158.3" font-family="Times,serif" font-size="14.00">rewrite&#45;clj.zip/find&#45;next&#45;depth&#45;first</text>
</a>
</g>
</g>
<!-- mranderson.move/replace&#45;in&#45;import&#45;&gt;rewrite&#45;clj.zip/find&#45;next&#45;depth&#45;first -->
<g id="edge11" class="edge">
<title>mranderson.move/replace&#45;in&#45;import&#45;&gt;rewrite&#45;clj.zip/find&#45;next&#45;depth&#45;first</title>
<path fill="none" stroke="black" d="M1078.24,-300.27C1245.57,-293.48 1541.99,-278.76 1794.59,-252 1975.53,-232.83 2185.76,-198.45 2301.3,-178.5"/>
<polygon fill="black" stroke="black" points="2302.25,-181.88 2311.5,-176.73 2301.05,-174.99 2302.25,-181.88"/>
</g>
<!-- clojure.core/when&#45;let -->
<g id="node13" class="node">
<title>clojure.core/when&#45;let</title>
<g id="a_node13"><a xlink:href="./clojure.core__when-let-usgs.svg" xlink:title="clojure.core/when&#45;let">
<ellipse fill="none" stroke="black" cx="638.59" cy="-90" rx="85.59" ry="18"/>
<text text-anchor="middle" x="638.59" y="-86.3" font-family="Times,serif" font-size="14.00">clojure.core/when&#45;let</text>
</a>
</g>
</g>
<!-- mranderson.move/import?&#45;&gt;clojure.core/when&#45;let -->
<g id="edge12" class="edge">
<title>mranderson.move/import?&#45;&gt;clojure.core/when&#45;let</title>
<path fill="none" stroke="black" d="M539.84,-144.59C557.84,-134.82 580.85,-122.33 600.14,-111.87"/>
<polygon fill="black" stroke="black" points="601.86,-114.91 608.98,-107.07 598.52,-108.76 601.86,-114.91"/>
</g>
<!-- rewrite&#45;clj.zip.base/sexpr -->
<g id="node14" class="node">
<title>rewrite&#45;clj.zip.base/sexpr</title>
<g id="a_node14"><a xlink:href="./rewrite-clj.zip.base__sexpr-usgs.svg" xlink:title="rewrite&#45;clj.zip.base/sexpr">
<ellipse fill="none" stroke="black" cx="842.59" cy="-90" rx="100.18" ry="18"/>
<text text-anchor="middle" x="842.59" y="-86.3" font-family="Times,serif" font-size="14.00">rewrite&#45;clj.zip.base/sexpr</text>
</a>
</g>
</g>
<!-- mranderson.move/import?&#45;&gt;rewrite&#45;clj.zip.base/sexpr -->
<g id="edge13" class="edge">
<title>mranderson.move/import?&#45;&gt;rewrite&#45;clj.zip.base/sexpr</title>
<path fill="none" stroke="black" d="M573.41,-147.59C629.64,-135.76 711.52,-118.55 770.19,-106.22"/>
<polygon fill="black" stroke="black" points="771.06,-109.61 780.13,-104.13 769.62,-102.76 771.06,-109.61"/>
</g>
<!-- clojure.core/and -->
<g id="node15" class="node">
<title>clojure.core/and</title>
<g id="a_node15"><a xlink:href="./clojure.core__and-usgs.svg" xlink:title="clojure.core/and">
<ellipse fill="none" stroke="black" cx="67.59" cy="-90" rx="67.69" ry="18"/>
<text text-anchor="middle" x="67.59" y="-86.3" font-family="Times,serif" font-size="14.00">clojure.core/and</text>
</a>
</g>
</g>
<!-- mranderson.move/import?&#45;&gt;clojure.core/and -->
<g id="edge14" class="edge">
<title>mranderson.move/import?&#45;&gt;clojure.core/and</title>
<path fill="none" stroke="black" d="M432.89,-149.62C420.11,-147.74 406.98,-145.81 394.59,-144 283.51,-127.79 255.03,-128.11 144.59,-108 138.81,-106.95 132.81,-105.77 126.81,-104.54"/>
<polygon fill="black" stroke="black" points="127.28,-101.06 116.78,-102.43 125.84,-107.91 127.28,-101.06"/>
</g>
<!-- clojure.core/= -->
<g id="node16" class="node">
<title>clojure.core/=</title>
<g id="a_node16"><a xlink:href="./clojure.core__%3D-usgs.svg" xlink:title="clojure.core/=">
<ellipse fill="none" stroke="black" cx="213.59" cy="-90" rx="60.39" ry="18"/>
<text text-anchor="middle" x="213.59" y="-86.3" font-family="Times,serif" font-size="14.00">clojure.core/=</text>
</a>
</g>
</g>
<!-- mranderson.move/import?&#45;&gt;clojure.core/= -->
<g id="edge15" class="edge">
<title>mranderson.move/import?&#45;&gt;clojure.core/=</title>
<path fill="none" stroke="black" d="M449.33,-147.14C403.55,-136.56 339.07,-121.55 282.59,-108 277.96,-106.89 273.16,-105.73 268.34,-104.55"/>
<polygon fill="black" stroke="black" points="269.03,-101.12 258.49,-102.14 267.37,-107.92 269.03,-101.12"/>
</g>
<!-- rewrite&#45;clj.zip.base/sexpr&#45;able? -->
<g id="node17" class="node">
<title>rewrite&#45;clj.zip.base/sexpr&#45;able?</title>
<g id="a_node17"><a xlink:href="./rewrite-clj.zip.base__sexpr-able%3F-usgs.svg" xlink:title="rewrite&#45;clj.zip.base/sexpr&#45;able?">
<ellipse fill="none" stroke="black" cx="413.59" cy="-90" rx="121.58" ry="18"/>
<text text-anchor="middle" x="413.59" y="-86.3" font-family="Times,serif" font-size="14.00">rewrite&#45;clj.zip.base/sexpr&#45;able?</text>
</a>
</g>
</g>
<!-- mranderson.move/import?&#45;&gt;rewrite&#45;clj.zip.base/sexpr&#45;able? -->
<g id="edge16" class="edge">
<title>mranderson.move/import?&#45;&gt;rewrite&#45;clj.zip.base/sexpr&#45;able?</title>
<path fill="none" stroke="black" d="M486.84,-144.41C474.26,-135.24 458.45,-123.7 444.73,-113.71"/>
<polygon fill="black" stroke="black" points="446.66,-110.78 436.51,-107.71 442.53,-116.43 446.66,-110.78"/>
</g>
<!-- mranderson.move/replace&#45;in&#45;import*&#45;&gt;rewrite&#45;clj.zip/root -->
<g id="edge17" class="edge">
<title>mranderson.move/replace&#45;in&#45;import*&#45;&gt;rewrite&#45;clj.zip/root</title>
<path fill="none" stroke="black" d="M997.56,-224.06C962.44,-221.45 923.98,-218.61 888.59,-216 669.49,-199.87 613.35,-209.12 395.59,-180 388.46,-179.05 381.03,-177.87 373.66,-176.59"/>
<polygon fill="black" stroke="black" points="374.12,-173.12 363.66,-174.79 372.88,-180.01 374.12,-173.12"/>
</g>
<!-- mranderson.move/replace&#45;in&#45;import*&#45;&gt;clojure.core/some&#45;&gt; -->
<g id="edge18" class="edge">
<title>mranderson.move/replace&#45;in&#45;import*&#45;&gt;clojure.core/some&#45;&gt;</title>
<path fill="none" stroke="black" d="M1035.3,-219.24C972.8,-208.71 884.73,-193.72 807.59,-180 800.83,-178.8 793.78,-177.53 786.73,-176.24"/>
<polygon fill="black" stroke="black" points="786.91,-172.72 776.44,-174.36 785.65,-179.6 786.91,-172.72"/>
</g>
<!-- mranderson.move/replace&#45;in&#45;import*&#45;&gt;clojure.core/if&#45;let -->
<g id="edge22" class="edge">
<title>mranderson.move/replace&#45;in&#45;import*&#45;&gt;clojure.core/if&#45;let</title>
<path fill="none" stroke="black" d="M1065.92,-217.2C1028.98,-205.91 979.42,-190.76 942.08,-179.35"/>
<polygon fill="black" stroke="black" points="942.97,-175.96 932.38,-176.38 940.92,-182.66 942.97,-175.96"/>
</g>
<!-- mranderson.move/replace&#45;in&#45;import*&#45;&gt;rewrite&#45;clj.zip/find&#45;next&#45;depth&#45;first -->
<g id="edge25" class="edge">
<title>mranderson.move/replace&#45;in&#45;import*&#45;&gt;rewrite&#45;clj.zip/find&#45;next&#45;depth&#45;first</title>
<path fill="none" stroke="black" d="M1216.67,-220.91C1234.6,-219.03 1253.14,-217.29 1270.59,-216 1703.49,-184.01 1813.84,-213.83 2246.59,-180 2259.51,-178.99 2273.07,-177.69 2286.46,-176.25"/>
<polygon fill="black" stroke="black" points="2287.1,-179.7 2296.66,-175.13 2286.34,-172.74 2287.1,-179.7"/>
</g>
<!-- mranderson.move/java&#45;style&#45;prefix? -->
<g id="node18" class="node">
<title>mranderson.move/java&#45;style&#45;prefix?</title>
<g id="a_node18"><a xlink:href="./mranderson.move__java-style-prefix%3F-usgs.svg" xlink:title="mranderson.move/java&#45;style&#45;prefix?">
<ellipse fill="none" stroke="black" cx="1117.59" cy="-162" rx="139.18" ry="18"/>
<text text-anchor="middle" x="1117.59" y="-158.3" font-family="Times,serif" font-size="14.00">mranderson.move/java&#45;style&#45;prefix?</text>
</a>
</g>
</g>
<!-- mranderson.move/replace&#45;in&#45;import*&#45;&gt;mranderson.move/java&#45;style&#45;prefix? -->
<g id="edge19" class="edge">
<title>mranderson.move/replace&#45;in&#45;import*&#45;&gt;mranderson.move/java&#45;style&#45;prefix?</title>
<g id="a_edge19"><a xlink:href="./mranderson.move__java-style-prefix%3F.svg">
<path fill="none" stroke="black" d="M1117.59,-215.7C1117.59,-207.98 1117.59,-198.71 1117.59,-190.11"/>
<polygon fill="black" stroke="black" points="1121.09,-190.1 1117.59,-180.1 1114.09,-190.1 1121.09,-190.1"/>
</a>
</g>
</g>
<!-- clojure.core/loop -->
<g id="node19" class="node">
<title>clojure.core/loop</title>
<g id="a_node19"><a xlink:href="./clojure.core__loop-usgs.svg" xlink:title="clojure.core/loop">
<ellipse fill="none" stroke="black" cx="1345.59" cy="-162" rx="70.69" ry="18"/>
<text text-anchor="middle" x="1345.59" y="-158.3" font-family="Times,serif" font-size="14.00">clojure.core/loop</text>
</a>
</g>
</g>
<!-- mranderson.move/replace&#45;in&#45;import*&#45;&gt;clojure.core/loop -->
<g id="edge20" class="edge">
<title>mranderson.move/replace&#45;in&#45;import*&#45;&gt;clojure.core/loop</title>
<path fill="none" stroke="black" d="M1169.33,-217.12C1206.12,-205.82 1255.38,-190.7 1292.47,-179.31"/>
<polygon fill="black" stroke="black" points="1293.57,-182.63 1302.11,-176.35 1291.52,-175.94 1293.57,-182.63"/>
</g>
<!-- rewrite&#45;clj.zip/edit -->
<g id="node20" class="node">
<title>rewrite&#45;clj.zip/edit</title>
<g id="a_node20"><a xlink:href="./rewrite-clj.zip__edit-usgs.svg" xlink:title="rewrite&#45;clj.zip/edit">
<ellipse fill="none" stroke="black" cx="1510.59" cy="-162" rx="76.09" ry="18"/>
<text text-anchor="middle" x="1510.59" y="-158.3" font-family="Times,serif" font-size="14.00">rewrite&#45;clj.zip/edit</text>
</a>
</g>
</g>
<!-- mranderson.move/replace&#45;in&#45;import*&#45;&gt;rewrite&#45;clj.zip/edit -->
<g id="edge21" class="edge">
<title>mranderson.move/replace&#45;in&#45;import*&#45;&gt;rewrite&#45;clj.zip/edit</title>
<path fill="none" stroke="black" d="M1201.04,-219.27C1263.06,-208.91 1349.71,-194.11 1425.59,-180 1431.81,-178.84 1438.27,-177.61 1444.73,-176.35"/>
<polygon fill="black" stroke="black" points="1445.71,-179.73 1454.85,-174.37 1444.37,-172.86 1445.71,-179.73"/>
</g>
<!-- clojure.core/partial -->
<g id="node21" class="node">
<title>clojure.core/partial</title>
<g id="a_node21"><a xlink:href="./clojure.core__partial-usgs.svg" xlink:title="clojure.core/partial">
<ellipse fill="none" stroke="black" cx="1681.59" cy="-162" rx="77.19" ry="18"/>
<text text-anchor="middle" x="1681.59" y="-158.3" font-family="Times,serif" font-size="14.00">clojure.core/partial</text>
</a>
</g>
</g>
<!-- mranderson.move/replace&#45;in&#45;import*&#45;&gt;clojure.core/partial -->
<g id="edge23" class="edge">
<title>mranderson.move/replace&#45;in&#45;import*&#45;&gt;clojure.core/partial</title>
<path fill="none" stroke="black" d="M1221.29,-221.47C1237.78,-219.64 1254.66,-217.77 1270.59,-216 1415.04,-199.98 1451.96,-202.11 1595.59,-180 1602.26,-178.97 1609.2,-177.79 1616.12,-176.54"/>
<polygon fill="black" stroke="black" points="1617.01,-179.94 1626.2,-174.67 1615.73,-173.05 1617.01,-179.94"/>
</g>
<!-- clojure.core/recur -->
<g id="node22" class="node">
<title>clojure.core/recur</title>
<g id="a_node22"><a xlink:href="./clojure.core__recur-usgs.svg" xlink:title="clojure.core/recur">
<ellipse fill="none" stroke="black" cx="1850.59" cy="-162" rx="73.39" ry="18"/>
<text text-anchor="middle" x="1850.59" y="-158.3" font-family="Times,serif" font-size="14.00">clojure.core/recur</text>
</a>
</g>
</g>
<!-- mranderson.move/replace&#45;in&#45;import*&#45;&gt;clojure.core/recur -->
<g id="edge24" class="edge">
<title>mranderson.move/replace&#45;in&#45;import*&#45;&gt;clojure.core/recur</title>
<path fill="none" stroke="black" d="M1218.77,-221.2C1236.05,-219.35 1253.83,-217.54 1270.59,-216 1491.14,-195.77 1548.21,-210.28 1767.59,-180 1774.35,-179.07 1781.38,-177.92 1788.36,-176.65"/>
<polygon fill="black" stroke="black" points="1789.35,-180.03 1798.53,-174.74 1788.05,-173.15 1789.35,-180.03"/>
</g>
<!-- mranderson.move/&#45;&gt;new&#45;import&#45;node -->
<g id="node23" class="node">
<title>mranderson.move/&#45;&gt;new&#45;import&#45;node</title>
<g id="a_node23"><a xlink:href="./mranderson.move__-%3Enew-import-node-usgs.svg" xlink:title="mranderson.move/&#45;&gt;new&#45;import&#45;node">
<ellipse fill="none" stroke="black" cx="2089.59" cy="-162" rx="147.57" ry="18"/>
<text text-anchor="middle" x="2089.59" y="-158.3" font-family="Times,serif" font-size="14.00">mranderson.move/&#45;&gt;new&#45;import&#45;node</text>
</a>
</g>
</g>
<!-- mranderson.move/replace&#45;in&#45;import*&#45;&gt;mranderson.move/&#45;&gt;new&#45;import&#45;node -->
<g id="edge26" class="edge">
<title>mranderson.move/replace&#45;in&#45;import*&#45;&gt;mranderson.move/&#45;&gt;new&#45;import&#45;node</title>
<g id="a_edge26"><a xlink:href="./mranderson.move__-%3Enew-import-node.svg">
<path fill="none" stroke="black" d="M1217.92,-221.03C1235.46,-219.18 1253.55,-217.41 1270.59,-216 1564.25,-191.72 1638.91,-203.87 1932.59,-180 1946.8,-178.85 1961.72,-177.46 1976.47,-175.98"/>
<polygon fill="black" stroke="black" points="1977.04,-179.44 1986.64,-174.95 1976.33,-172.48 1977.04,-179.44"/>
</a>
</g>
</g>
<!-- mranderson.move/java&#45;style&#45;prefix?&#45;&gt;clojure.core/when&#45;let -->
<g id="edge30" class="edge">
<title>mranderson.move/java&#45;style&#45;prefix?&#45;&gt;clojure.core/when&#45;let</title>
<path fill="none" stroke="black" d="M1021.96,-148.88C944.18,-138.76 831.64,-123.53 733.59,-108 726.17,-106.82 718.44,-105.54 710.72,-104.22"/>
<polygon fill="black" stroke="black" points="711.07,-100.73 700.62,-102.47 709.88,-107.62 711.07,-100.73"/>
</g>
<!-- mranderson.move/java&#45;style&#45;prefix?&#45;&gt;rewrite&#45;clj.zip.base/sexpr -->
<g id="edge31" class="edge">
<title>mranderson.move/java&#45;style&#45;prefix?&#45;&gt;rewrite&#45;clj.zip.base/sexpr</title>
<path fill="none" stroke="black" d="M1057.58,-145.72C1013.27,-134.44 953,-119.1 907.55,-107.54"/>
<polygon fill="black" stroke="black" points="908.36,-104.13 897.8,-105.05 906.63,-110.91 908.36,-104.13"/>
</g>
<!-- mranderson.move/java&#45;package -->
<g id="node24" class="node">
<title>mranderson.move/java&#45;package</title>
<g id="a_node24"><a xlink:href="./mranderson.move__java-package-usgs.svg" xlink:title="mranderson.move/java&#45;package">
<ellipse fill="none" stroke="black" cx="1700.59" cy="-90" rx="124.28" ry="18"/>
<text text-anchor="middle" x="1700.59" y="-86.3" font-family="Times,serif" font-size="14.00">mranderson.move/java&#45;package</text>
</a>
</g>
</g>
<!-- mranderson.move/java&#45;style&#45;prefix?&#45;&gt;mranderson.move/java&#45;package -->
<g id="edge27" class="edge">
<title>mranderson.move/java&#45;style&#45;prefix?&#45;&gt;mranderson.move/java&#45;package</title>
<g id="a_edge27"><a xlink:href="./mranderson.move__java-package.svg">
<path fill="none" stroke="black" d="M1217.49,-149.46C1308.5,-138.89 1446.61,-122.69 1566.59,-108 1577.67,-106.64 1589.25,-105.21 1600.77,-103.76"/>
<polygon fill="black" stroke="black" points="1601.38,-107.21 1610.87,-102.49 1600.51,-100.27 1601.38,-107.21"/>
</a>
</g>
</g>
<!-- rewrite&#45;clj.zip.base/tag -->
<g id="node25" class="node">
<title>rewrite&#45;clj.zip.base/tag</title>
<g id="a_node25"><a xlink:href="./rewrite-clj.zip.base__tag-usgs.svg" xlink:title="rewrite&#45;clj.zip.base/tag">
<ellipse fill="none" stroke="black" cx="1052.59" cy="-90" rx="91.78" ry="18"/>
<text text-anchor="middle" x="1052.59" y="-86.3" font-family="Times,serif" font-size="14.00">rewrite&#45;clj.zip.base/tag</text>
</a>
</g>
</g>
<!-- mranderson.move/java&#45;style&#45;prefix?&#45;&gt;rewrite&#45;clj.zip.base/tag -->
<g id="edge28" class="edge">
<title>mranderson.move/java&#45;style&#45;prefix?&#45;&gt;rewrite&#45;clj.zip.base/tag</title>
<path fill="none" stroke="black" d="M1101.86,-144.05C1093.88,-135.46 1084.03,-124.86 1075.25,-115.4"/>
<polygon fill="black" stroke="black" points="1077.55,-112.74 1068.18,-107.79 1072.42,-117.5 1077.55,-112.74"/>
</g>
<!-- clojure.string/starts&#45;with? -->
<g id="node26" class="node">
<title>clojure.string/starts&#45;with?</title>
<g id="a_node26"><a xlink:href="./clojure.string__starts-with%3F-usgs.svg" xlink:title="clojure.string/starts&#45;with?">
<ellipse fill="none" stroke="black" cx="1262.59" cy="-90" rx="100.98" ry="18"/>
<text text-anchor="middle" x="1262.59" y="-86.3" font-family="Times,serif" font-size="14.00">clojure.string/starts&#45;with?</text>
</a>
</g>
</g>
<!-- mranderson.move/java&#45;style&#45;prefix?&#45;&gt;clojure.string/starts&#45;with? -->
<g id="edge29" class="edge">
<title>mranderson.move/java&#45;style&#45;prefix?&#45;&gt;clojure.string/starts&#45;with?</title>
<path fill="none" stroke="black" d="M1151.96,-144.41C1172.4,-134.54 1198.5,-121.94 1220.22,-111.46"/>
<polygon fill="black" stroke="black" points="1221.74,-114.61 1229.23,-107.11 1218.7,-108.3 1221.74,-114.61"/>
</g>
<!-- clojure.core/when&#45;not -->
<g id="node27" class="node">
<title>clojure.core/when&#45;not</title>
<g id="a_node27"><a xlink:href="./clojure.core__when-not-usgs.svg" xlink:title="clojure.core/when&#45;not">
<ellipse fill="none" stroke="black" cx="1469.59" cy="-90" rx="88.28" ry="18"/>
<text text-anchor="middle" x="1469.59" y="-86.3" font-family="Times,serif" font-size="14.00">clojure.core/when&#45;not</text>
</a>
</g>
</g>
<!-- mranderson.move/java&#45;style&#45;prefix?&#45;&gt;clojure.core/when&#45;not -->
<g id="edge32" class="edge">
<title>mranderson.move/java&#45;style&#45;prefix?&#45;&gt;clojure.core/when&#45;not</title>
<path fill="none" stroke="black" d="M1190.1,-146.58C1251.2,-134.43 1338.11,-117.15 1398.74,-105.09"/>
<polygon fill="black" stroke="black" points="1399.49,-108.51 1408.62,-103.13 1398.12,-101.64 1399.49,-108.51"/>
</g>
<!-- mranderson.move/&#45;&gt;new&#45;import&#45;node&#45;&gt;mranderson.move/java&#45;package -->
<g id="edge33" class="edge">
<title>mranderson.move/&#45;&gt;new&#45;import&#45;node&#45;&gt;mranderson.move/java&#45;package</title>
<g id="a_edge33"><a xlink:href="./mranderson.move__java-package.svg">
<path fill="none" stroke="black" d="M2010.41,-146.75C1945.01,-134.98 1852.39,-118.32 1785.48,-106.27"/>
<polygon fill="black" stroke="black" points="1785.84,-102.78 1775.38,-104.46 1784.6,-109.67 1785.84,-102.78"/>
</a>
</g>
</g>
<!-- clojure.core/cond -->
<g id="node28" class="node">
<title>clojure.core/cond</title>
<g id="a_node28"><a xlink:href="./clojure.core__cond-usgs.svg" xlink:title="clojure.core/cond">
<ellipse fill="none" stroke="black" cx="1914.59" cy="-90" rx="72.29" ry="18"/>
<text text-anchor="middle" x="1914.59" y="-86.3" font-family="Times,serif" font-size="14.00">clojure.core/cond</text>
</a>
</g>
</g>
<!-- mranderson.move/&#45;&gt;new&#45;import&#45;node&#45;&gt;clojure.core/cond -->
<g id="edge34" class="edge">
<title>mranderson.move/&#45;&gt;new&#45;import&#45;node&#45;&gt;clojure.core/cond</title>
<path fill="none" stroke="black" d="M2048.56,-144.59C2022.18,-134.03 1987.84,-120.3 1960.54,-109.38"/>
<polygon fill="black" stroke="black" points="1961.79,-106.11 1951.2,-105.64 1959.19,-112.61 1961.79,-106.11"/>
</g>
<!-- clojure.core/symbol? -->
<g id="node29" class="node">
<title>clojure.core/symbol?</title>
<g id="a_node29"><a xlink:href="./clojure.core__symbol%3F-usgs.svg" xlink:title="clojure.core/symbol?">
<ellipse fill="none" stroke="black" cx="2089.59" cy="-90" rx="85.29" ry="18"/>
<text text-anchor="middle" x="2089.59" y="-86.3" font-family="Times,serif" font-size="14.00">clojure.core/symbol?</text>
</a>
</g>
</g>
<!-- mranderson.move/&#45;&gt;new&#45;import&#45;node&#45;&gt;clojure.core/symbol? -->
<g id="edge35" class="edge">
<title>mranderson.move/&#45;&gt;new&#45;import&#45;node&#45;&gt;clojure.core/symbol?</title>
<path fill="none" stroke="black" d="M2089.59,-143.7C2089.59,-135.98 2089.59,-126.71 2089.59,-118.11"/>
<polygon fill="black" stroke="black" points="2093.09,-118.1 2089.59,-108.1 2086.09,-118.1 2093.09,-118.1"/>
</g>
<!-- clojure.core/let -->
<g id="node30" class="node">
<title>clojure.core/let</title>
<g id="a_node30"><a xlink:href="./clojure.core__let-usgs.svg" xlink:title="clojure.core/let">
<ellipse fill="none" stroke="black" cx="2256.59" cy="-90" rx="63.89" ry="18"/>
<text text-anchor="middle" x="2256.59" y="-86.3" font-family="Times,serif" font-size="14.00">clojure.core/let</text>
</a>
</g>
</g>
<!-- mranderson.move/&#45;&gt;new&#45;import&#45;node&#45;&gt;clojure.core/let -->
<g id="edge36" class="edge">
<title>mranderson.move/&#45;&gt;new&#45;import&#45;node&#45;&gt;clojure.core/let</title>
<path fill="none" stroke="black" d="M2128.75,-144.59C2154.08,-133.97 2187.08,-120.14 2213.2,-109.19"/>
<polygon fill="black" stroke="black" points="2214.62,-112.39 2222.49,-105.29 2211.92,-105.93 2214.62,-112.39"/>
</g>
<!-- clojure.core/symbol -->
<g id="node31" class="node">
<title>clojure.core/symbol</title>
<g id="a_node31"><a xlink:href="./clojure.core__symbol-usgs.svg" xlink:title="clojure.core/symbol">
<ellipse fill="none" stroke="black" cx="2419.59" cy="-90" rx="81.49" ry="18"/>
<text text-anchor="middle" x="2419.59" y="-86.3" font-family="Times,serif" font-size="14.00">clojure.core/symbol</text>
</a>
</g>
</g>
<!-- mranderson.move/&#45;&gt;new&#45;import&#45;node&#45;&gt;clojure.core/symbol -->
<g id="edge37" class="edge">
<title>mranderson.move/&#45;&gt;new&#45;import&#45;node&#45;&gt;clojure.core/symbol</title>
<path fill="none" stroke="black" d="M2159.98,-146.07C2217.12,-133.95 2297.13,-116.98 2353.18,-105.09"/>
<polygon fill="black" stroke="black" points="2353.95,-108.5 2363.01,-103 2352.5,-101.65 2353.95,-108.5"/>
</g>
<!-- clojure.string/replace -->
<g id="node32" class="node">
<title>clojure.string/replace</title>
<g id="a_node32"><a xlink:href="./clojure.string__replace-usgs.svg" xlink:title="clojure.string/replace">
<ellipse fill="none" stroke="black" cx="2203.59" cy="-18" rx="85.29" ry="18"/>
<text text-anchor="middle" x="2203.59" y="-14.3" font-family="Times,serif" font-size="14.00">clojure.string/replace</text>
</a>
</g>
</g>
<!-- mranderson.move/&#45;&gt;new&#45;import&#45;node&#45;&gt;clojure.string/replace -->
<g id="edge38" class="edge">
<title>mranderson.move/&#45;&gt;new&#45;import&#45;node&#45;&gt;clojure.string/replace</title>
<path fill="none" stroke="black" d="M2195.23,-149.39C2317.93,-135.66 2504.39,-113.9 2509.59,-108 2520.18,-96 2519.9,-84.24 2509.59,-72 2482.79,-40.16 2377.01,-27.44 2297.27,-22.37"/>
<polygon fill="black" stroke="black" points="2297.38,-18.87 2287.19,-21.76 2296.96,-25.86 2297.38,-18.87"/>
</g>
<!-- mranderson.move/java&#45;package&#45;&gt;clojure.string/replace -->
<g id="edge40" class="edge">
<title>mranderson.move/java&#45;package&#45;&gt;clojure.string/replace</title>
<path fill="none" stroke="black" d="M1786.78,-77.01C1881.62,-63.81 2032.78,-42.77 2124.64,-29.99"/>
<polygon fill="black" stroke="black" points="2125.29,-33.43 2134.71,-28.59 2124.33,-26.5 2125.29,-33.43"/>
</g>
<!-- clojure.core/name -->
<g id="node33" class="node">
<title>clojure.core/name</title>
<g id="a_node33"><a xlink:href="./clojure.core__name-usgs.svg" xlink:title="clojure.core/name">
<ellipse fill="none" stroke="black" cx="1700.59" cy="-18" rx="74.99" ry="18"/>
<text text-anchor="middle" x="1700.59" y="-14.3" font-family="Times,serif" font-size="14.00">clojure.core/name</text>
</a>
</g>
</g>
<!-- mranderson.move/java&#45;package&#45;&gt;clojure.core/name -->
<g id="edge39" class="edge">
<title>mranderson.move/java&#45;package&#45;&gt;clojure.core/name</title>
<path fill="none" stroke="black" d="M1700.59,-71.7C1700.59,-63.98 1700.59,-54.71 1700.59,-46.11"/>
<polygon fill="black" stroke="black" points="1704.09,-46.1 1700.59,-36.1 1697.09,-46.1 1704.09,-46.1"/>
</g>
</g>
</svg>
