<?xml version="1.0" encoding="UTF-8" standalone="no"?>
<!DOCTYPE svg PUBLIC "-//W3C//DTD SVG 1.1//EN"
 "http://www.w3.org/Graphics/SVG/1.1/DTD/svg11.dtd">
<!-- Generated by graphviz version 2.43.0 (0)
 -->
<!-- Title: graph Pages: 1 -->
<svg width="1312pt" height="188pt"
 viewBox="0.00 0.00 1311.64 188.00" xmlns="http://www.w3.org/2000/svg" xmlns:xlink="http://www.w3.org/1999/xlink">
<g id="graph0" class="graph" transform="scale(1 1) rotate(0) translate(4 184)">
<title>graph</title>
<polygon fill="white" stroke="transparent" points="-4,4 -4,-184 1307.64,-184 1307.64,4 -4,4"/>
<!-- mranderson.move/java&#45;style&#45;prefix? -->
<g id="node1" class="node">
<title>mranderson.move/java&#45;style&#45;prefix?</title>
<g id="a_node1"><a xlink:href="./mranderson.move__java-style-prefix%3F.svg" xlink:title="mranderson.move/java&#45;style&#45;prefix?">
<ellipse fill="none" stroke="black" cx="705.7" cy="-162" rx="138.1" ry="18"/>
<text text-anchor="middle" x="705.7" y="-157.8" font-family="Times,serif" font-size="14.00">mranderson.move/java&#45;style&#45;prefix?</text>
</a>
</g>
</g>
<!-- mranderson.move/java&#45;package -->
<g id="node2" class="node">
<title>mranderson.move/java&#45;package</title>
<g id="a_node2"><a xlink:href="./mranderson.move__java-package.svg" xlink:title="mranderson.move/java&#45;package">
<ellipse fill="none" stroke="black" cx="161.7" cy="-90" rx="122.62" ry="18"/>
<text text-anchor="middle" x="161.7" y="-85.8" font-family="Times,serif" font-size="14.00">mranderson.move/java&#45;package</text>
</a>
</g>
</g>
<!-- mranderson.move/java&#45;style&#45;prefix?&#45;&gt;mranderson.move/java&#45;package -->
<g id="edge1" class="edge">
<title>mranderson.move/java&#45;style&#45;prefix?&#45;&gt;mranderson.move/java&#45;package</title>
<path fill="none" stroke="black" d="M611.2,-148.85C527.69,-138.11 402.6,-122.02 293.7,-108 283.08,-106.63 271.98,-105.21 260.93,-103.78"/>
<polygon fill="black" stroke="black" points="261.17,-100.28 250.81,-102.48 260.28,-107.23 261.17,-100.28"/>
</g>
<!-- rewrite&#45;clj.zip.base/tag -->
<g id="node3" class="node">
<title>rewrite&#45;clj.zip.base/tag</title>
<ellipse fill="none" stroke="black" cx="393.7" cy="-90" rx="91.26" ry="18"/>
<text text-anchor="middle" x="393.7" y="-85.8" font-family="Times,serif" font-size="14.00">rewrite&#45;clj.zip.base/tag</text>
</g>
<!-- mranderson.move/java&#45;style&#45;prefix?&#45;&gt;rewrite&#45;clj.zip.base/tag -->
<g id="edge2" class="edge">
<title>mranderson.move/java&#45;style&#45;prefix?&#45;&gt;rewrite&#45;clj.zip.base/tag</title>
<path fill="none" stroke="black" d="M639.53,-146.15C587.1,-134.39 514.13,-118.02 461.32,-106.17"/>
<polygon fill="black" stroke="black" points="461.9,-102.72 451.38,-103.94 460.37,-109.55 461.9,-102.72"/>
</g>
<!-- clojure.string/starts&#45;with? -->
<g id="node4" class="node">
<title>clojure.string/starts&#45;with?</title>
<ellipse fill="none" stroke="black" cx="603.7" cy="-90" rx="100.96" ry="18"/>
<text text-anchor="middle" x="603.7" y="-85.8" font-family="Times,serif" font-size="14.00">clojure.string/starts&#45;with?</text>
</g>
<!-- mranderson.move/java&#45;style&#45;prefix?&#45;&gt;clojure.string/starts&#45;with? -->
<g id="edge3" class="edge">
<title>mranderson.move/java&#45;style&#45;prefix?&#45;&gt;clojure.string/starts&#45;with?</title>
<path fill="none" stroke="black" d="M681.26,-144.23C667.76,-134.97 650.82,-123.34 636.21,-113.32"/>
<polygon fill="black" stroke="black" points="638.15,-110.4 627.93,-107.63 634.19,-116.17 638.15,-110.4"/>
</g>
<!-- clojure.core/when&#45;let -->
<g id="node5" class="node">
<title>clojure.core/when&#45;let</title>
<ellipse fill="none" stroke="black" cx="807.7" cy="-90" rx="85.47" ry="18"/>
<text text-anchor="middle" x="807.7" y="-85.8" font-family="Times,serif" font-size="14.00">clojure.core/when&#45;let</text>
</g>
<!-- mranderson.move/java&#45;style&#45;prefix?&#45;&gt;clojure.core/when&#45;let -->
<g id="edge4" class="edge">
<title>mranderson.move/java&#45;style&#45;prefix?&#45;&gt;clojure.core/when&#45;let</title>
<path fill="none" stroke="black" d="M730.13,-144.23C743.72,-134.9 760.82,-123.17 775.5,-113.1"/>
<polygon fill="black" stroke="black" points="777.55,-115.93 783.81,-107.39 773.59,-110.16 777.55,-115.93"/>
</g>
<!-- rewrite&#45;clj.zip.base/sexpr -->
<g id="node6" class="node">
<title>rewrite&#45;clj.zip.base/sexpr</title>
<ellipse fill="none" stroke="black" cx="1010.7" cy="-90" rx="99.47" ry="18"/>
<text text-anchor="middle" x="1010.7" y="-85.8" font-family="Times,serif" font-size="14.00">rewrite&#45;clj.zip.base/sexpr</text>
</g>
<!-- mranderson.move/java&#45;style&#45;prefix?&#45;&gt;rewrite&#45;clj.zip.base/sexpr -->
<g id="edge5" class="edge">
<title>mranderson.move/java&#45;style&#45;prefix?&#45;&gt;rewrite&#45;clj.zip.base/sexpr</title>
<path fill="none" stroke="black" d="M770.75,-146.07C821.02,-134.53 890.44,-118.6 941.68,-106.84"/>
<polygon fill="black" stroke="black" points="942.71,-110.19 951.68,-104.55 941.15,-103.37 942.71,-110.19"/>
</g>
<!-- clojure.core/when&#45;not -->
<g id="node7" class="node">
<title>clojure.core/when&#45;not</title>
<ellipse fill="none" stroke="black" cx="1215.7" cy="-90" rx="87.89" ry="18"/>
<text text-anchor="middle" x="1215.7" y="-85.8" font-family="Times,serif" font-size="14.00">clojure.core/when&#45;not</text>
</g>
<!-- mranderson.move/java&#45;style&#45;prefix?&#45;&gt;clojure.core/when&#45;not -->
<g id="edge6" class="edge">
<title>mranderson.move/java&#45;style&#45;prefix?&#45;&gt;clojure.core/when&#45;not</title>
<path fill="none" stroke="black" d="M805.6,-149.48C889.36,-139.51 1012.02,-124.18 1118.7,-108 1126.36,-106.84 1134.36,-105.55 1142.32,-104.23"/>
<polygon fill="black" stroke="black" points="1143.09,-107.65 1152.37,-102.53 1141.92,-100.74 1143.09,-107.65"/>
</g>
<!-- clojure.core/name -->
<g id="node8" class="node">
<title>clojure.core/name</title>
<ellipse fill="none" stroke="black" cx="73.7" cy="-18" rx="73.89" ry="18"/>
<text text-anchor="middle" x="73.7" y="-13.8" font-family="Times,serif" font-size="14.00">clojure.core/name</text>
</g>
<!-- mranderson.move/java&#45;package&#45;&gt;clojure.core/name -->
<g id="edge7" class="edge">
<title>mranderson.move/java&#45;package&#45;&gt;clojure.core/name</title>
<path fill="none" stroke="black" d="M140.39,-72.05C128.88,-62.89 114.5,-51.46 102.05,-41.56"/>
<polygon fill="black" stroke="black" points="104.2,-38.79 94.2,-35.31 99.84,-44.27 104.2,-38.79"/>
</g>
<!-- clojure.string/replace -->
<g id="node9" class="node">
<title>clojure.string/replace</title>
<ellipse fill="none" stroke="black" cx="250.7" cy="-18" rx="84.99" ry="18"/>
<text text-anchor="middle" x="250.7" y="-13.8" font-family="Times,serif" font-size="14.00">clojure.string/replace</text>
</g>
<!-- mranderson.move/java&#45;package&#45;&gt;clojure.string/replace -->
<g id="edge8" class="edge">
<title>mranderson.move/java&#45;package&#45;&gt;clojure.string/replace</title>
<path fill="none" stroke="black" d="M183.24,-72.05C194.8,-62.96 209.21,-51.63 221.74,-41.77"/>
<polygon fill="black" stroke="black" points="223.96,-44.48 229.66,-35.55 219.63,-38.98 223.96,-44.48"/>
</g>
</g>
</svg>
