<?xml version="1.0" encoding="UTF-8" standalone="no"?>
<!DOCTYPE svg PUBLIC "-//W3C//DTD SVG 1.1//EN"
 "http://www.w3.org/Graphics/SVG/1.1/DTD/svg11.dtd">
<!-- Generated by graphviz version 2.43.0 (0)
 -->
<!-- Title: graph Pages: 1 -->
<svg width="927pt" height="116pt"
 viewBox="0.00 0.00 926.66 116.00" xmlns="http://www.w3.org/2000/svg" xmlns:xlink="http://www.w3.org/1999/xlink">
<g id="graph0" class="graph" transform="scale(1 1) rotate(0) translate(4 112)">
<title>graph</title>
<polygon fill="white" stroke="transparent" points="-4,4 -4,-112 922.66,-112 922.66,4 -4,4"/>
<!-- mranderson.move/import? -->
<g id="node1" class="node">
<title>mranderson.move/import?</title>
<g id="a_node1"><a xlink:href="./mranderson.move__import%3F.svg" xlink:title="mranderson.move/import?">
<ellipse fill="none" stroke="black" cx="489.13" cy="-90" rx="103.85" ry="18"/>
<text text-anchor="middle" x="489.13" y="-85.8" font-family="Times,serif" font-size="14.00">mranderson.move/import?</text>
</a>
</g>
</g>
<!-- rewrite&#45;clj.zip.base/tag -->
<g id="node2" class="node">
<title>rewrite&#45;clj.zip.base/tag</title>
<ellipse fill="none" stroke="black" cx="91.13" cy="-18" rx="91.26" ry="18"/>
<text text-anchor="middle" x="91.13" y="-13.8" font-family="Times,serif" font-size="14.00">rewrite&#45;clj.zip.base/tag</text>
</g>
<!-- mranderson.move/import?&#45;&gt;rewrite&#45;clj.zip.base/tag -->
<g id="edge1" class="edge">
<title>mranderson.move/import?&#45;&gt;rewrite&#45;clj.zip.base/tag</title>
<path fill="none" stroke="black" d="M418.89,-76.65C348.13,-64.2 239.31,-45.06 166.7,-32.29"/>
<polygon fill="black" stroke="black" points="167.16,-28.82 156.71,-30.53 165.95,-35.71 167.16,-28.82"/>
</g>
<!-- clojure.core/when&#45;let -->
<g id="node3" class="node">
<title>clojure.core/when&#45;let</title>
<ellipse fill="none" stroke="black" cx="286.13" cy="-18" rx="85.47" ry="18"/>
<text text-anchor="middle" x="286.13" y="-13.8" font-family="Times,serif" font-size="14.00">clojure.core/when&#45;let</text>
</g>
<!-- mranderson.move/import?&#45;&gt;clojure.core/when&#45;let -->
<g id="edge2" class="edge">
<title>mranderson.move/import?&#45;&gt;clojure.core/when&#45;let</title>
<path fill="none" stroke="black" d="M444.83,-73.72C413.4,-62.89 371.11,-48.3 338.09,-36.92"/>
<polygon fill="black" stroke="black" points="339.19,-33.59 328.6,-33.64 336.91,-40.21 339.19,-33.59"/>
</g>
<!-- rewrite&#45;clj.zip.base/sexpr -->
<g id="node4" class="node">
<title>rewrite&#45;clj.zip.base/sexpr</title>
<ellipse fill="none" stroke="black" cx="489.13" cy="-18" rx="99.47" ry="18"/>
<text text-anchor="middle" x="489.13" y="-13.8" font-family="Times,serif" font-size="14.00">rewrite&#45;clj.zip.base/sexpr</text>
</g>
<!-- mranderson.move/import?&#45;&gt;rewrite&#45;clj.zip.base/sexpr -->
<g id="edge3" class="edge">
<title>mranderson.move/import?&#45;&gt;rewrite&#45;clj.zip.base/sexpr</title>
<path fill="none" stroke="black" d="M489.13,-71.7C489.13,-63.98 489.13,-54.71 489.13,-46.11"/>
<polygon fill="black" stroke="black" points="492.63,-46.1 489.13,-36.1 485.63,-46.1 492.63,-46.1"/>
</g>
<!-- clojure.core/when&#45;not -->
<g id="node5" class="node">
<title>clojure.core/when&#45;not</title>
<ellipse fill="none" stroke="black" cx="694.13" cy="-18" rx="87.89" ry="18"/>
<text text-anchor="middle" x="694.13" y="-13.8" font-family="Times,serif" font-size="14.00">clojure.core/when&#45;not</text>
</g>
<!-- mranderson.move/import?&#45;&gt;clojure.core/when&#45;not -->
<g id="edge4" class="edge">
<title>mranderson.move/import?&#45;&gt;clojure.core/when&#45;not</title>
<path fill="none" stroke="black" d="M533.87,-73.72C565.5,-62.92 608.03,-48.4 641.33,-37.03"/>
<polygon fill="black" stroke="black" points="642.57,-40.31 650.9,-33.76 640.3,-33.68 642.57,-40.31"/>
</g>
<!-- clojure.core/= -->
<g id="node6" class="node">
<title>clojure.core/=</title>
<ellipse fill="none" stroke="black" cx="859.13" cy="-18" rx="59.56" ry="18"/>
<text text-anchor="middle" x="859.13" y="-13.8" font-family="Times,serif" font-size="14.00">clojure.core/=</text>
</g>
<!-- mranderson.move/import?&#45;&gt;clojure.core/= -->
<g id="edge5" class="edge">
<title>mranderson.move/import?&#45;&gt;clojure.core/=</title>
<path fill="none" stroke="black" d="M563.57,-77.45C624.87,-67.58 713.94,-52.4 791.13,-36 795.87,-34.99 800.77,-33.89 805.68,-32.74"/>
<polygon fill="black" stroke="black" points="806.8,-36.08 815.71,-30.35 805.17,-29.27 806.8,-36.08"/>
</g>
</g>
</svg>
