<?xml version="1.0" encoding="UTF-8" standalone="no"?>
<!DOCTYPE svg PUBLIC "-//W3C//DTD SVG 1.1//EN"
 "http://www.w3.org/Graphics/SVG/1.1/DTD/svg11.dtd">
<!-- Generated by graphviz version 2.43.0 (0)
 -->
<!-- Title: graph Pages: 1 -->
<svg width="944pt" height="188pt"
 viewBox="0.00 0.00 943.57 188.00" xmlns="http://www.w3.org/2000/svg" xmlns:xlink="http://www.w3.org/1999/xlink">
<g id="graph0" class="graph" transform="scale(1 1) rotate(0) translate(4 184)">
<title>graph</title>
<polygon fill="white" stroke="transparent" points="-4,4 -4,-184 939.57,-184 939.57,4 -4,4"/>
<!-- mranderson.move/&#45;&gt;new&#45;import&#45;node -->
<g id="node1" class="node">
<title>mranderson.move/&#45;&gt;new&#45;import&#45;node</title>
<g id="a_node1"><a xlink:href="./mranderson.move__-%3Enew-import-node.svg" xlink:title="mranderson.move/&#45;&gt;new&#45;import&#45;node">
<ellipse fill="none" stroke="black" cx="592.81" cy="-162" rx="145.49" ry="18"/>
<text text-anchor="middle" x="592.81" y="-157.8" font-family="Times,serif" font-size="14.00">mranderson.move/&#45;&gt;new&#45;import&#45;node</text>
</a>
</g>
</g>
<!-- mranderson.move/java&#45;package -->
<g id="node2" class="node">
<title>mranderson.move/java&#45;package</title>
<g id="a_node2"><a xlink:href="./mranderson.move__java-package.svg" xlink:title="mranderson.move/java&#45;package">
<ellipse fill="none" stroke="black" cx="122.81" cy="-90" rx="122.62" ry="18"/>
<text text-anchor="middle" x="122.81" y="-85.8" font-family="Times,serif" font-size="14.00">mranderson.move/java&#45;package</text>
</a>
</g>
</g>
<!-- mranderson.move/&#45;&gt;new&#45;import&#45;node&#45;&gt;mranderson.move/java&#45;package -->
<g id="edge1" class="edge">
<title>mranderson.move/&#45;&gt;new&#45;import&#45;node&#45;&gt;mranderson.move/java&#45;package</title>
<path fill="none" stroke="black" d="M503.85,-147.75C421.38,-135.47 299.14,-117.26 215.5,-104.8"/>
<polygon fill="black" stroke="black" points="215.9,-101.33 205.49,-103.31 214.87,-108.25 215.9,-101.33"/>
</g>
<!-- clojure.core/cond -->
<g id="node3" class="node">
<title>clojure.core/cond</title>
<ellipse fill="none" stroke="black" cx="335.81" cy="-90" rx="71.97" ry="18"/>
<text text-anchor="middle" x="335.81" y="-85.8" font-family="Times,serif" font-size="14.00">clojure.core/cond</text>
</g>
<!-- mranderson.move/&#45;&gt;new&#45;import&#45;node&#45;&gt;clojure.core/cond -->
<g id="edge2" class="edge">
<title>mranderson.move/&#45;&gt;new&#45;import&#45;node&#45;&gt;clojure.core/cond</title>
<path fill="none" stroke="black" d="M535.45,-145.38C492.86,-133.78 435.04,-118.03 392.58,-106.46"/>
<polygon fill="black" stroke="black" points="393.25,-103.02 382.68,-103.77 391.41,-109.77 393.25,-103.02"/>
</g>
<!-- clojure.core/symbol? -->
<g id="node4" class="node">
<title>clojure.core/symbol?</title>
<ellipse fill="none" stroke="black" cx="509.81" cy="-90" rx="84.52" ry="18"/>
<text text-anchor="middle" x="509.81" y="-85.8" font-family="Times,serif" font-size="14.00">clojure.core/symbol?</text>
</g>
<!-- mranderson.move/&#45;&gt;new&#45;import&#45;node&#45;&gt;clojure.core/symbol? -->
<g id="edge3" class="edge">
<title>mranderson.move/&#45;&gt;new&#45;import&#45;node&#45;&gt;clojure.core/symbol?</title>
<path fill="none" stroke="black" d="M572.72,-144.05C562.04,-135.05 548.75,-123.84 537.14,-114.05"/>
<polygon fill="black" stroke="black" points="539.33,-111.32 529.43,-107.55 534.82,-116.67 539.33,-111.32"/>
</g>
<!-- clojure.core/let -->
<g id="node5" class="node">
<title>clojure.core/let</title>
<ellipse fill="none" stroke="black" cx="675.81" cy="-90" rx="63.27" ry="18"/>
<text text-anchor="middle" x="675.81" y="-85.8" font-family="Times,serif" font-size="14.00">clojure.core/let</text>
</g>
<!-- mranderson.move/&#45;&gt;new&#45;import&#45;node&#45;&gt;clojure.core/let -->
<g id="edge4" class="edge">
<title>mranderson.move/&#45;&gt;new&#45;import&#45;node&#45;&gt;clojure.core/let</title>
<path fill="none" stroke="black" d="M612.9,-144.05C623.66,-134.98 637.06,-123.68 648.73,-113.84"/>
<polygon fill="black" stroke="black" points="651.09,-116.43 656.47,-107.31 646.57,-111.08 651.09,-116.43"/>
</g>
<!-- clojure.core/symbol -->
<g id="node6" class="node">
<title>clojure.core/symbol</title>
<ellipse fill="none" stroke="black" cx="837.81" cy="-90" rx="80.67" ry="18"/>
<text text-anchor="middle" x="837.81" y="-85.8" font-family="Times,serif" font-size="14.00">clojure.core/symbol</text>
</g>
<!-- mranderson.move/&#45;&gt;new&#45;import&#45;node&#45;&gt;clojure.core/symbol -->
<g id="edge5" class="edge">
<title>mranderson.move/&#45;&gt;new&#45;import&#45;node&#45;&gt;clojure.core/symbol</title>
<path fill="none" stroke="black" d="M647.79,-145.29C687.28,-134.01 740.39,-118.83 780.42,-107.4"/>
<polygon fill="black" stroke="black" points="781.39,-110.76 790.04,-104.65 779.46,-104.03 781.39,-110.76"/>
</g>
<!-- clojure.string/replace -->
<g id="node7" class="node">
<title>clojure.string/replace</title>
<ellipse fill="none" stroke="black" cx="622.81" cy="-18" rx="84.99" ry="18"/>
<text text-anchor="middle" x="622.81" y="-13.8" font-family="Times,serif" font-size="14.00">clojure.string/replace</text>
</g>
<!-- mranderson.move/&#45;&gt;new&#45;import&#45;node&#45;&gt;clojure.string/replace -->
<g id="edge6" class="edge">
<title>mranderson.move/&#45;&gt;new&#45;import&#45;node&#45;&gt;clojure.string/replace</title>
<path fill="none" stroke="black" d="M731.98,-156.74C812.28,-151.01 902.28,-137.89 927.81,-108 938.2,-95.83 938.11,-84.24 927.81,-72 901.1,-40.25 795.67,-27.52 716.18,-22.41"/>
<polygon fill="black" stroke="black" points="716.33,-18.92 706.14,-21.8 715.9,-25.9 716.33,-18.92"/>
</g>
<!-- mranderson.move/java&#45;package&#45;&gt;clojure.string/replace -->
<g id="edge8" class="edge">
<title>mranderson.move/java&#45;package&#45;&gt;clojure.string/replace</title>
<path fill="none" stroke="black" d="M208.19,-77.05C302.29,-63.87 452.39,-42.86 543.84,-30.06"/>
<polygon fill="black" stroke="black" points="544.45,-33.5 553.87,-28.65 543.48,-26.57 544.45,-33.5"/>
</g>
<!-- clojure.core/name -->
<g id="node8" class="node">
<title>clojure.core/name</title>
<ellipse fill="none" stroke="black" cx="122.81" cy="-18" rx="73.89" ry="18"/>
<text text-anchor="middle" x="122.81" y="-13.8" font-family="Times,serif" font-size="14.00">clojure.core/name</text>
</g>
<!-- mranderson.move/java&#45;package&#45;&gt;clojure.core/name -->
<g id="edge7" class="edge">
<title>mranderson.move/java&#45;package&#45;&gt;clojure.core/name</title>
<path fill="none" stroke="black" d="M122.81,-71.7C122.81,-63.98 122.81,-54.71 122.81,-46.11"/>
<polygon fill="black" stroke="black" points="126.31,-46.1 122.81,-36.1 119.31,-46.1 126.31,-46.1"/>
</g>
</g>
</svg>
